<?xml version="1.0" encoding="UTF-8" standalone="no"?>
<svg
   version="1.1"
   width="84.351341mm"
   height="61.9814mm"
   viewBox="0 0 84.351343 61.981399"
   id="svg888"
   sodipodi:docname="pcbb.svg"
   xmlns:inkscape="http://www.inkscape.org/namespaces/inkscape"
   xmlns:sodipodi="http://sodipodi.sourceforge.net/DTD/sodipodi-0.dtd"
   xmlns="http://www.w3.org/2000/svg"
   xmlns:svg="http://www.w3.org/2000/svg">
  <defs
     id="defs892" />
  <sodipodi:namedview
     id="namedview890"
     pagecolor="#ffffff"
     bordercolor="#000000"
     borderopacity="0.25"
     inkscape:showpageshadow="2"
     inkscape:pageopacity="0.0"
     inkscape:pagecheckerboard="0"
     inkscape:deskcolor="#d1d1d1"
     inkscape:document-units="mm" />
  <title
     id="title2">SVG Image created as pcbb.svg date 2025-09-14T18:48:49+0000 </title>
  <desc
     id="desc4">Image generated by PCBNEW </desc>
  <g
     style="fill:#000000;fill-opacity:1;stroke:#000000;stroke-linecap:round;stroke-linejoin:round;stroke-opacity:1"
     id="g6"
     transform="translate(-29.442506,-26.1386)" />
  <g
     style="fill:none;stroke:#4d7fc4;stroke-width:0.9;stroke-linecap:round;stroke-linejoin:round;stroke-opacity:1"
     id="g18"
     transform="translate(-29.442506,-26.1386)">
    <path
       d="m 100.3117,82.645 v -1.1"
       id="path8" />
    <path
       d="m 100.3117,86.665 v -0.8"
       id="path10" />
    <path
       d="m 91.6717,82.645 v -1.1"
       id="path12" />
    <path
       d="m 91.6717,86.665 v -0.8"
       id="path14" />
    <path
       style="fill:#4d7fc4;fill-opacity:1;fill-rule:evenodd;stroke:none"
       d="m 67.281,46.365 0.0157,0.1537 0.0555,0.1675 0.0926,0.1502 0.1248,0.1248 0.1502,0.0926 0.1675,0.0555 0.1537,0.0157 h 2.28 l 0.1537,-0.0157 0.1675,-0.0555 0.1502,-0.0926 0.1248,-0.1248 0.0926,-0.1502 0.0555,-0.1675 0.0157,-0.1537 v -2.28 L 71.0653,43.9313 71.0098,43.7638 70.9172,43.6136 70.7924,43.4888 70.6422,43.3962 70.4747,43.3407 70.321,43.325 h -2.28 l -0.1537,0.0157 -0.1675,0.0555 -0.1502,0.0926 -0.1248,0.1248 -0.0926,0.1502 -0.0555,0.1675 -0.0157,0.1537 z"
       id="path16" />
  </g>
  <g
     style="fill:#4d7fc4;fill-opacity:1;stroke:none"
     id="g346"
     transform="translate(-29.442506,-26.1386)">
    <circle
       cx="74.181"
       cy="45.224998"
       r="1.9"
       id="circle20" />
    <path
       style="fill:#4d7fc4;fill-opacity:1;fill-rule:evenodd;stroke:none"
       d="m 81.468,31.8636 v -4.3 h -0.7 v 4.3 z"
       id="path22" />
    <path
       style="fill:#4d7fc4;fill-opacity:1;fill-rule:evenodd;stroke:none"
       d="m 80.468,31.8636 v -4.3 h -0.7 v 4.3 z"
       id="path24" />
    <path
       style="fill:#4d7fc4;fill-opacity:1;fill-rule:evenodd;stroke:none"
       d="m 79.468,31.8636 v -4.3 h -0.7 v 4.3 z"
       id="path26" />
    <path
       style="fill:#4d7fc4;fill-opacity:1;fill-rule:evenodd;stroke:none"
       d="m 78.468,31.8636 v -4.3 h -0.7 v 4.3 z"
       id="path28" />
    <path
       style="fill:#4d7fc4;fill-opacity:1;fill-rule:evenodd;stroke:none"
       d="m 77.468,31.8636 v -4.3 h -0.7 v 4.3 z"
       id="path30" />
    <path
       style="fill:#4d7fc4;fill-opacity:1;fill-rule:evenodd;stroke:none"
       d="m 76.468,31.8636 v -4.3 h -0.7 v 4.3 z"
       id="path32" />
    <path
       style="fill:#4d7fc4;fill-opacity:1;fill-rule:evenodd;stroke:none"
       d="m 75.468,31.8636 v -4.3 h -0.7 v 4.3 z"
       id="path34" />
    <path
       style="fill:#4d7fc4;fill-opacity:1;fill-rule:evenodd;stroke:none"
       d="m 74.468,31.8636 v -4.3 h -0.7 v 4.3 z"
       id="path36" />
    <path
       style="fill:#4d7fc4;fill-opacity:1;fill-rule:evenodd;stroke:none"
       d="m 73.468,31.8636 v -4.3 h -0.7 v 4.3 z"
       id="path38" />
    <path
       style="fill:#4d7fc4;fill-opacity:1;fill-rule:evenodd;stroke:none"
       d="m 72.468,31.8636 v -4.3 h -0.7 v 4.3 z"
       id="path40" />
    <path
       style="fill:#4d7fc4;fill-opacity:1;fill-rule:evenodd;stroke:none"
       d="m 71.468,31.8636 v -4.3 h -0.7 v 4.3 z"
       id="path42" />
    <path
       style="fill:#4d7fc4;fill-opacity:1;fill-rule:evenodd;stroke:none"
       d="m 68.468,31.8636 v -4.3 h -0.7 v 4.3 z"
       id="path44" />
    <path
       style="fill:#4d7fc4;fill-opacity:1;fill-rule:evenodd;stroke:none"
       d="m 67.468,31.8636 v -4.3 h -0.7 v 4.3 z"
       id="path46" />
    <path
       style="fill:#4d7fc4;fill-opacity:1;fill-rule:evenodd;stroke:none"
       d="m 66.468,31.8636 v -4.3 h -0.7 v 4.3 z"
       id="path48" />
    <path
       style="fill:#4d7fc4;fill-opacity:1;fill-rule:evenodd;stroke:none"
       d="m 65.468,31.8636 v -4.3 h -0.7 v 4.3 z"
       id="path50" />
    <path
       style="fill:#4d7fc4;fill-opacity:1;fill-rule:evenodd;stroke:none"
       d="m 64.468,31.8636 v -4.3 h -0.7 v 4.3 z"
       id="path52" />
    <path
       style="fill:#4d7fc4;fill-opacity:1;fill-rule:evenodd;stroke:none"
       d="m 63.468,31.8636 v -4.3 h -0.7 v 4.3 z"
       id="path54" />
    <path
       style="fill:#4d7fc4;fill-opacity:1;fill-rule:evenodd;stroke:none"
       d="m 62.468,31.8636 v -4.3 h -0.7 v 4.3 z"
       id="path56" />
    <circle
       cx="63.081001"
       cy="34.525002"
       r="0.22499999"
       id="circle58" />
    <circle
       cx="64.081001"
       cy="32.625"
       r="0.22499999"
       id="circle60" />
    <circle
       cx="64.081001"
       cy="36.325001"
       r="0.22499999"
       id="circle62" />
    <circle
       cx="63.081001"
       cy="35.424999"
       r="0.22499999"
       id="circle64" />
    <circle
       cx="64.081001"
       cy="37.224998"
       r="0.22499999"
       id="circle66" />
    <circle
       cx="62.131001"
       cy="35.424999"
       r="0.22499999"
       id="circle68" />
    <circle
       cx="63.081001"
       cy="32.625"
       r="0.22499999"
       id="circle70" />
    <circle
       cx="64.081001"
       cy="34.525002"
       r="0.22499999"
       id="circle72" />
    <circle
       cx="64.081001"
       cy="35.424999"
       r="0.22499999"
       id="circle74" />
    <circle
       cx="62.131001"
       cy="33.625"
       r="0.22499999"
       id="circle76" />
    <circle
       cx="62.131001"
       cy="37.224998"
       r="0.22499999"
       id="circle78" />
    <circle
       cx="63.081001"
       cy="36.325001"
       r="0.22499999"
       id="circle80" />
    <circle
       cx="63.081001"
       cy="33.625"
       r="0.22499999"
       id="circle82" />
    <circle
       cx="62.131001"
       cy="32.625"
       r="0.22499999"
       id="circle84" />
    <circle
       cx="63.081001"
       cy="37.224998"
       r="0.22499999"
       id="circle86" />
    <circle
       cx="62.131001"
       cy="36.325001"
       r="0.22499999"
       id="circle88" />
    <circle
       cx="62.131001"
       cy="34.525002"
       r="0.22499999"
       id="circle90" />
    <circle
       cx="64.081001"
       cy="33.625"
       r="0.22499999"
       id="circle92" />
    <circle
       cx="96.231003"
       cy="61.525002"
       r="0.22499999"
       id="circle94" />
    <circle
       cx="97.081001"
       cy="66.425003"
       r="0.22499999"
       id="circle96" />
    <circle
       cx="89.181"
       cy="60.325001"
       r="0.2"
       id="circle98" />
    <circle
       cx="90.630997"
       cy="61.724998"
       r="0.2"
       id="circle100" />
    <circle
       cx="91.081001"
       cy="69.099998"
       r="0.22499999"
       id="circle102" />
    <circle
       cx="87.130997"
       cy="73.425003"
       r="0.22499999"
       id="circle104" />
    <circle
       cx="84.655998"
       cy="47.806"
       r="0.22499999"
       id="circle106" />
    <circle
       cx="71.081001"
       cy="32.525002"
       r="0.22499999"
       id="circle108" />
    <circle
       cx="71.130997"
       cy="36.275002"
       r="0.22499999"
       id="circle110" />
    <circle
       cx="97.681"
       cy="65.925003"
       r="0.22499999"
       id="circle112" />
    <circle
       cx="71.081001"
       cy="33.424999"
       r="0.22499999"
       id="circle114" />
    <circle
       cx="86.431"
       cy="46.025002"
       r="0.22499999"
       id="circle116" />
    <circle
       cx="85.431"
       cy="46.025002"
       r="0.22499999"
       id="circle118" />
    <circle
       cx="72.130997"
       cy="34.375"
       r="0.22499999"
       id="circle120" />
    <circle
       cx="72.181"
       cy="37.174999"
       r="0.22499999"
       id="circle122" />
    <circle
       cx="73.181"
       cy="36.275002"
       r="0.22499999"
       id="circle124" />
    <circle
       cx="73.130997"
       cy="34.375"
       r="0.22499999"
       id="circle126" />
    <circle
       cx="72.181"
       cy="35.474998"
       r="0.22499999"
       id="circle128" />
    <circle
       cx="85.356003"
       cy="47.806"
       r="0.22499999"
       id="circle130" />
    <circle
       cx="73.130997"
       cy="33.424999"
       r="0.22499999"
       id="circle132" />
    <circle
       cx="71.081001"
       cy="34.375"
       r="0.22499999"
       id="circle134" />
    <circle
       cx="97.831001"
       cy="58.224998"
       r="0.22499999"
       id="circle136" />
    <circle
       cx="72.130997"
       cy="32.525002"
       r="0.22499999"
       id="circle138" />
    <circle
       cx="73.181"
       cy="37.174999"
       r="0.22499999"
       id="circle140" />
    <circle
       cx="71.130997"
       cy="37.174999"
       r="0.22499999"
       id="circle142" />
    <circle
       cx="72.181"
       cy="36.275002"
       r="0.22499999"
       id="circle144" />
    <circle
       cx="71.130997"
       cy="35.474998"
       r="0.22499999"
       id="circle146" />
    <circle
       cx="73.130997"
       cy="32.525002"
       r="0.22499999"
       id="circle148" />
    <circle
       cx="85.405998"
       cy="46.905998"
       r="0.22499999"
       id="circle150" />
    <circle
       cx="84.655998"
       cy="46.006001"
       r="0.22499999"
       id="circle152" />
    <circle
       cx="71.931"
       cy="65.287498"
       r="0.22499999"
       id="circle154" />
    <circle
       cx="84.655998"
       cy="46.905998"
       r="0.22499999"
       id="circle156" />
    <circle
       cx="72.130997"
       cy="33.424999"
       r="0.22499999"
       id="circle158" />
    <circle
       cx="73.181"
       cy="35.474998"
       r="0.22499999"
       id="circle160" />
    <circle
       cx="56.331001"
       cy="63.775002"
       r="0.22499999"
       id="circle162" />
    <circle
       cx="67.081001"
       cy="32.674999"
       r="0.22499999"
       id="circle164" />
    <circle
       cx="67.030998"
       cy="35.424999"
       r="0.22499999"
       id="circle166" />
    <circle
       cx="95.806"
       cy="46.355999"
       r="0.22499999"
       id="circle168" />
    <circle
       cx="68.081001"
       cy="33.625"
       r="0.22499999"
       id="circle170" />
    <circle
       cx="66.030998"
       cy="33.625"
       r="0.22499999"
       id="circle172" />
    <circle
       cx="68.130997"
       cy="32.674999"
       r="0.22499999"
       id="circle174" />
    <circle
       cx="67.030998"
       cy="36.275002"
       r="0.22499999"
       id="circle176" />
    <circle
       cx="66.030998"
       cy="36.275002"
       r="0.22499999"
       id="circle178" />
    <circle
       cx="67.030998"
       cy="33.625"
       r="0.22499999"
       id="circle180" />
    <circle
       cx="68.081001"
       cy="35.424999"
       r="0.22499999"
       id="circle182" />
    <circle
       cx="68.081001"
       cy="36.275002"
       r="0.22499999"
       id="circle184" />
    <circle
       cx="66.030998"
       cy="37.174999"
       r="0.22499999"
       id="circle186" />
    <circle
       cx="66.030998"
       cy="35.424999"
       r="0.22499999"
       id="circle188" />
    <circle
       cx="66.030998"
       cy="34.474998"
       r="0.22499999"
       id="circle190" />
    <circle
       cx="67.030998"
       cy="37.174999"
       r="0.22499999"
       id="circle192" />
    <circle
       cx="66.081001"
       cy="32.674999"
       r="0.22499999"
       id="circle194" />
    <circle
       cx="95.806"
       cy="46.355999"
       r="0.22499999"
       id="circle196" />
    <circle
       cx="68.081001"
       cy="37.174999"
       r="0.22499999"
       id="circle198" />
    <circle
       cx="67.030998"
       cy="34.474998"
       r="0.22499999"
       id="circle200" />
    <circle
       cx="68.081001"
       cy="34.474998"
       r="0.22499999"
       id="circle202" />
    <circle
       cx="95.206001"
       cy="44.706001"
       r="0.22499999"
       id="circle204" />
    <circle
       cx="87.505997"
       cy="45.905998"
       r="0.22499999"
       id="circle206" />
    <circle
       cx="92.456001"
       cy="61.150002"
       r="0.2"
       id="circle208" />
    <circle
       cx="89.280998"
       cy="57.974998"
       r="0.2"
       id="circle210" />
    <circle
       cx="96.681"
       cy="59.375"
       r="0.22499999"
       id="circle212" />
    <circle
       cx="94.530998"
       cy="66.375"
       r="0.22499999"
       id="circle214" />
    <circle
       cx="94.530998"
       cy="70.985001"
       r="0.22499999"
       id="circle216" />
    <circle
       cx="97.030998"
       cy="61.224998"
       r="0.22499999"
       id="circle218" />
    <circle
       cx="87.280998"
       cy="71.425003"
       r="0.22499999"
       id="circle220" />
    <circle
       cx="91.981003"
       cy="69.025002"
       r="0.22499999"
       id="circle222" />
    <circle
       cx="93.280998"
       cy="68.625"
       r="0.22499999"
       id="circle224" />
    <circle
       cx="88.630997"
       cy="70.925003"
       r="0.22499999"
       id="circle226" />
    <circle
       cx="78.130997"
       cy="35.974998"
       r="0.2"
       id="circle228" />
    <circle
       cx="99.681"
       cy="69.375"
       r="0.22499999"
       id="circle230" />
    <circle
       cx="91.255997"
       cy="47.506001"
       r="0.22499999"
       id="circle232" />
    <circle
       cx="69.231003"
       cy="79.237503"
       r="0.22499999"
       id="circle234" />
    <circle
       cx="92.606003"
       cy="46.105999"
       r="0.22499999"
       id="circle236" />
    <circle
       cx="92.606003"
       cy="44.806"
       r="0.22499999"
       id="circle238" />
    <circle
       cx="75.130997"
       cy="32.525002"
       r="0.2"
       id="circle240" />
    <circle
       cx="100.4388"
       cy="63.282799"
       r="0.22499999"
       id="circle242" />
    <circle
       cx="91.431"
       cy="67.324997"
       r="0.22499999"
       id="circle244" />
    <circle
       cx="89.956001"
       cy="46.105999"
       r="0.22499999"
       id="circle246" />
    <circle
       cx="78.130997"
       cy="32.525002"
       r="0.2"
       id="circle248" />
    <circle
       cx="91.981003"
       cy="74.724998"
       r="0.22499999"
       id="circle250" />
    <circle
       cx="89.956001"
       cy="47.506001"
       r="0.22499999"
       id="circle252" />
    <circle
       cx="75.181"
       cy="34.825001"
       r="0.2"
       id="circle254" />
    <circle
       cx="55.851002"
       cy="45.875"
       r="0.22499999"
       id="circle256" />
    <circle
       cx="78.130997"
       cy="34.825001"
       r="0.2"
       id="circle258" />
    <circle
       cx="69.331001"
       cy="71.637497"
       r="0.22499999"
       id="circle260" />
    <circle
       cx="75.130997"
       cy="33.724998"
       r="0.2"
       id="circle262" />
    <circle
       cx="99.481003"
       cy="86.324997"
       r="0.22499999"
       id="circle264" />
    <circle
       cx="96.431"
       cy="64.875"
       r="0.22499999"
       id="circle266" />
    <circle
       cx="91.255997"
       cy="44.806"
       r="0.22499999"
       id="circle268" />
    <circle
       cx="99.056"
       cy="49.855999"
       r="0.22499999"
       id="circle270" />
    <circle
       cx="94.030998"
       cy="62.724998"
       r="0.22499999"
       id="circle272" />
    <circle
       cx="94.030998"
       cy="64.875"
       r="0.22499999"
       id="circle274" />
    <circle
       cx="60.401001"
       cy="45.883701"
       r="0.22499999"
       id="circle276" />
    <circle
       cx="86.206001"
       cy="48.506001"
       r="0.22499999"
       id="circle278" />
    <circle
       cx="99.931"
       cy="83.275002"
       r="0.22499999"
       id="circle280" />
    <circle
       cx="88.280998"
       cy="41.474998"
       r="0.2"
       id="circle282" />
    <circle
       cx="95.280998"
       cy="62.724998"
       r="0.22499999"
       id="circle284" />
    <circle
       cx="76.181"
       cy="35.974998"
       r="0.2"
       id="circle286" />
    <circle
       cx="77.181"
       cy="33.724998"
       r="0.2"
       id="circle288" />
    <circle
       cx="76.130997"
       cy="32.525002"
       r="0.2"
       id="circle290" />
    <circle
       cx="94.030998"
       cy="63.875"
       r="0.22499999"
       id="circle292" />
    <circle
       cx="92.331001"
       cy="82.974998"
       r="0.22499999"
       id="circle294" />
    <circle
       cx="95.280998"
       cy="64.875"
       r="0.22499999"
       id="circle296" />
    <circle
       cx="96.431"
       cy="63.825001"
       r="0.22499999"
       id="circle298" />
    <circle
       cx="77.231003"
       cy="35.974998"
       r="0.2"
       id="circle300" />
    <circle
       cx="99.181"
       cy="67.074997"
       r="0.22499999"
       id="circle302" />
    <circle
       cx="89.956001"
       cy="44.806"
       r="0.22499999"
       id="circle304" />
    <circle
       cx="77.231003"
       cy="34.825001"
       r="0.2"
       id="circle306" />
    <circle
       cx="87.130997"
       cy="69.625"
       r="0.22499999"
       id="circle308" />
    <circle
       cx="91.255997"
       cy="46.105999"
       r="0.22499999"
       id="circle310" />
    <circle
       cx="92.481003"
       cy="54.025002"
       r="0.2"
       id="circle312" />
    <circle
       cx="75.181"
       cy="35.974998"
       r="0.2"
       id="circle314" />
    <circle
       cx="92.380997"
       cy="86.224998"
       r="0.22499999"
       id="circle316" />
    <circle
       cx="96.380997"
       cy="62.724998"
       r="0.22499999"
       id="circle318" />
    <circle
       cx="95.630997"
       cy="55.224998"
       r="0.2"
       id="circle320" />
    <circle
       cx="95.331001"
       cy="70.025002"
       r="0.22499999"
       id="circle322" />
    <circle
       cx="88.981003"
       cy="62.974998"
       r="0.22499999"
       id="circle324" />
    <circle
       cx="92.606003"
       cy="47.506001"
       r="0.22499999"
       id="circle326" />
    <circle
       cx="77.130997"
       cy="32.525002"
       r="0.2"
       id="circle328" />
    <circle
       cx="94.181"
       cy="61.075001"
       r="0.22499999"
       id="circle330" />
    <circle
       cx="76.181"
       cy="34.825001"
       r="0.2"
       id="circle332" />
    <circle
       cx="95.280998"
       cy="63.825001"
       r="0.22499999"
       id="circle334" />
    <circle
       cx="96.681"
       cy="56.775002"
       r="0.2"
       id="circle336" />
    <circle
       cx="76.130997"
       cy="33.724998"
       r="0.2"
       id="circle338" />
    <circle
       cx="78.130997"
       cy="33.724998"
       r="0.2"
       id="circle340" />
    <circle
       cx="92.880997"
       cy="59.025002"
       r="0.2"
       id="circle342" />
    <circle
       cx="76.731003"
       cy="75.037498"
       r="0.22499999"
       id="circle344" />
  </g>
  <g
     style="fill:none;stroke:#4d7fc4;stroke-width:0.2;stroke-linecap:round;stroke-linejoin:round;stroke-opacity:1"
     id="g354"
     transform="translate(-29.442506,-26.1386)">
    <path
       d="m 96.231,61.575 v -0.05"
       id="path348" />
    <path
       d="m 97.081,66.425 v -4"
       id="path350" />
    <path
       d="m 97.081,62.425 -0.85,-0.85"
       id="path352" />
  </g>
  <g
     style="fill:none;stroke:#4d7fc4;stroke-width:0.153;stroke-linecap:round;stroke-linejoin:round;stroke-opacity:1"
     id="g360"
     transform="translate(-29.442506,-26.1386)">
    <path
       d="m 89.231,60.325 1.4,1.4"
       id="path356" />
    <path
       d="m 89.181,60.325 h 0.05"
       id="path358" />
  </g>
  <g
     style="fill:none;stroke:#4d7fc4;stroke-width:0.2;stroke-linecap:round;stroke-linejoin:round;stroke-opacity:1"
     id="g374"
     transform="translate(-29.442506,-26.1386)">
    <path
       d="m 91.081,69.1 v 0.075"
       id="path362" />
    <path
       d="m 86.681,72.975 0.45,0.45"
       id="path364" />
    <path
       d="M 86.681,71.2033 V 72.975"
       id="path366" />
    <path
       d="M 88.1093,69.775 86.681,71.2033"
       id="path368" />
    <path
       d="m 91.081,69.175 -0.6,0.6"
       id="path370" />
    <path
       d="M 90.481,69.775 H 88.1093"
       id="path372" />
  </g>
  <g
     style="fill:none;stroke:#4d7fc4;stroke-width:0.381;stroke-linecap:round;stroke-linejoin:round;stroke-opacity:1"
     id="g380"
     transform="translate(-29.442506,-26.1386)">
    <path
       d="m 97.831,65.775 -0.15,0.15"
       id="path376" />
    <path
       d="m 97.831,58.225 v 7.55"
       id="path378" />
  </g>
  <g
     style="fill:none;stroke:#4d7fc4;stroke-width:0.508;stroke-linecap:round;stroke-linejoin:round;stroke-opacity:1"
     id="g386"
     transform="translate(-29.442506,-26.1386)">
    <path
       d="m 66.031,47.125 v -9.95"
       id="path382" />
    <path
       d="m 56.331,63.775 v -6.95"
       id="path384" />
  </g>
  <g
     style="fill:none;stroke:#4d7fc4;stroke-width:0.254;stroke-linecap:round;stroke-linejoin:round;stroke-opacity:1"
     id="g390"
     transform="translate(-29.442506,-26.1386)">
    <path
       d="M 95.881,46.3408 V 43.8712"
       id="path388" />
  </g>
  <g
     style="fill:none;stroke:#4d7fc4;stroke-width:0.508;stroke-linecap:round;stroke-linejoin:round;stroke-opacity:1"
     id="g394"
     transform="translate(-29.442506,-26.1386)">
    <path
       d="m 56.331,56.825 9.7,-9.7"
       id="path392" />
  </g>
  <g
     style="fill:none;stroke:#4d7fc4;stroke-width:0.254;stroke-linecap:round;stroke-linejoin:round;stroke-opacity:1"
     id="g412"
     transform="translate(-29.442506,-26.1386)">
    <path
       d="M 68.689,37.783 68.081,37.175"
       id="path396" />
    <path
       d="M 89.7928,37.783 H 68.689"
       id="path398" />
    <path
       d="M 95.881,43.8712 89.7928,37.783"
       id="path400" />
    <path
       d="m 95.806,46.356 h 0.0598"
       id="path402" />
    <path
       d="M 95.8658,46.356 95.881,46.3408"
       id="path404" />
    <path
       d="m 94.856,44.356 0.35,0.35"
       id="path406" />
    <path
       d="m 87.506,45.906 1.55,-1.55"
       id="path408" />
    <path
       d="m 89.056,44.356 h 5.8"
       id="path410" />
  </g>
  <g
     style="fill:none;stroke:#4d7fc4;stroke-width:0.153;stroke-linecap:round;stroke-linejoin:round;stroke-opacity:1"
     id="g416"
     transform="translate(-29.442506,-26.1386)">
    <path
       d="M 92.456,61.15 89.281,57.975"
       id="path414" />
  </g>
  <g
     style="fill:none;stroke:#4d7fc4;stroke-width:0.2;stroke-linecap:round;stroke-linejoin:round;stroke-opacity:1"
     id="g436"
     transform="translate(-29.442506,-26.1386)">
    <path
       d="m 94.531,70.985 v -4.61"
       id="path418" />
    <path
       d="m 91.981,69.025 -1.319,1.319"
       id="path420" />
    <path
       d="m 88.162,70.344 -0.881,0.881"
       id="path422" />
    <path
       d="m 87.281,71.225 v 0.2"
       id="path424" />
    <path
       d="m 90.662,70.344 h -2.5"
       id="path426" />
    <path
       d="m 88.631,70.925 h 2.3"
       id="path428" />
    <path
       d="m 93.131,68.725 h 0.05"
       id="path430" />
    <path
       d="m 93.181,68.725 0.1,-0.1"
       id="path432" />
    <path
       d="m 90.931,70.925 2.2,-2.2"
       id="path434" />
  </g>
  <g
     style="fill:#02ffee;fill-opacity:0.4;stroke:none"
     id="g446"
     transform="translate(-29.442506,-26.1386)">
    <circle
       cx="61.306"
       cy="62.825001"
       r="0.5"
       id="circle438" />
    <circle
       cx="61.306"
       cy="82.824997"
       r="0.5"
       id="circle440" />
    <circle
       cx="98.881699"
       cy="82.574997"
       r="0.30000001"
       id="circle442" />
    <circle
       cx="93.1017"
       cy="82.574997"
       r="0.30000001"
       id="circle444" />
  </g>
  <g
     style="fill:none;stroke:#02ffee;stroke-width:0.9;stroke-linecap:round;stroke-linejoin:round;stroke-opacity:1"
     id="g458"
     transform="translate(-29.442506,-26.1386)">
    <path
       d="m 100.3117,82.645 v -1.1"
       id="path448" />
    <path
       d="m 100.3117,86.665 v -0.8"
       id="path450" />
    <path
       d="m 91.6717,82.645 v -1.1"
       id="path452" />
    <path
       d="m 91.6717,86.665 v -0.8"
       id="path454" />
    <path
       style="fill:#02ffee;fill-opacity:0.4;fill-rule:evenodd;stroke:none"
       d="m 67.281,46.365 0.0157,0.1537 0.0555,0.1675 0.0926,0.1502 0.1248,0.1248 0.1502,0.0926 0.1675,0.0555 0.1537,0.0157 h 2.28 l 0.1537,-0.0157 0.1675,-0.0555 0.1502,-0.0926 0.1248,-0.1248 0.0926,-0.1502 0.0555,-0.1675 0.0157,-0.1537 v -2.28 L 71.0653,43.9313 71.0098,43.7638 70.9172,43.6136 70.7924,43.4888 70.6422,43.3962 70.4747,43.3407 70.321,43.325 h -2.28 l -0.1537,0.0157 -0.1675,0.0555 -0.1502,0.0926 -0.1248,0.1248 -0.0926,0.1502 -0.0555,0.1675 -0.0157,0.1537 z"
       id="path456" />
  </g>
  <g
     style="fill:#02ffee;fill-opacity:0.4;stroke:none"
     id="g498"
     transform="translate(-29.442506,-26.1386)">
    <circle
       cx="74.181"
       cy="45.224998"
       r="1.9"
       id="circle460" />
    <path
       style="fill:#02ffee;fill-opacity:0.4;fill-rule:evenodd;stroke:none"
       d="m 81.468,31.8636 v -4.3 h -0.7 v 4.3 z"
       id="path462" />
    <path
       style="fill:#02ffee;fill-opacity:0.4;fill-rule:evenodd;stroke:none"
       d="m 80.468,31.8636 v -4.3 h -0.7 v 4.3 z"
       id="path464" />
    <path
       style="fill:#02ffee;fill-opacity:0.4;fill-rule:evenodd;stroke:none"
       d="m 79.468,31.8636 v -4.3 h -0.7 v 4.3 z"
       id="path466" />
    <path
       style="fill:#02ffee;fill-opacity:0.4;fill-rule:evenodd;stroke:none"
       d="m 78.468,31.8636 v -4.3 h -0.7 v 4.3 z"
       id="path468" />
    <path
       style="fill:#02ffee;fill-opacity:0.4;fill-rule:evenodd;stroke:none"
       d="m 77.468,31.8636 v -4.3 h -0.7 v 4.3 z"
       id="path470" />
    <path
       style="fill:#02ffee;fill-opacity:0.4;fill-rule:evenodd;stroke:none"
       d="m 76.468,31.8636 v -4.3 h -0.7 v 4.3 z"
       id="path472" />
    <path
       style="fill:#02ffee;fill-opacity:0.4;fill-rule:evenodd;stroke:none"
       d="m 75.468,31.8636 v -4.3 h -0.7 v 4.3 z"
       id="path474" />
    <path
       style="fill:#02ffee;fill-opacity:0.4;fill-rule:evenodd;stroke:none"
       d="m 74.468,31.8636 v -4.3 h -0.7 v 4.3 z"
       id="path476" />
    <path
       style="fill:#02ffee;fill-opacity:0.4;fill-rule:evenodd;stroke:none"
       d="m 73.468,31.8636 v -4.3 h -0.7 v 4.3 z"
       id="path478" />
    <path
       style="fill:#02ffee;fill-opacity:0.4;fill-rule:evenodd;stroke:none"
       d="m 72.468,31.8636 v -4.3 h -0.7 v 4.3 z"
       id="path480" />
    <path
       style="fill:#02ffee;fill-opacity:0.4;fill-rule:evenodd;stroke:none"
       d="m 71.468,31.8636 v -4.3 h -0.7 v 4.3 z"
       id="path482" />
    <path
       style="fill:#02ffee;fill-opacity:0.4;fill-rule:evenodd;stroke:none"
       d="m 68.468,31.8636 v -4.3 h -0.7 v 4.3 z"
       id="path484" />
    <path
       style="fill:#02ffee;fill-opacity:0.4;fill-rule:evenodd;stroke:none"
       d="m 67.468,31.8636 v -4.3 h -0.7 v 4.3 z"
       id="path486" />
    <path
       style="fill:#02ffee;fill-opacity:0.4;fill-rule:evenodd;stroke:none"
       d="m 66.468,31.8636 v -4.3 h -0.7 v 4.3 z"
       id="path488" />
    <path
       style="fill:#02ffee;fill-opacity:0.4;fill-rule:evenodd;stroke:none"
       d="m 65.468,31.8636 v -4.3 h -0.7 v 4.3 z"
       id="path490" />
    <path
       style="fill:#02ffee;fill-opacity:0.4;fill-rule:evenodd;stroke:none"
       d="m 64.468,31.8636 v -4.3 h -0.7 v 4.3 z"
       id="path492" />
    <path
       style="fill:#02ffee;fill-opacity:0.4;fill-rule:evenodd;stroke:none"
       d="m 63.468,31.8636 v -4.3 h -0.7 v 4.3 z"
       id="path494" />
    <path
       style="fill:#02ffee;fill-opacity:0.4;fill-rule:evenodd;stroke:none"
       d="m 62.468,31.8636 v -4.3 h -0.7 v 4.3 z"
       id="path496" />
  </g>
  <g
     style="fill:none;stroke:#d0d2cd;stroke-width:0.25;stroke-linecap:round;stroke-linejoin:round;stroke-opacity:1"
     id="g572"
     transform="translate(-29.442506,-26.1386)">
    <path
       d="M 58.3529,34.4105 52.1472,27.8876"
       id="path500" />
    <path
       d="m 84.887,34.4068 6.2022,-6.5192"
       id="path502" />
    <path
       d="M 43.5194,87.995 H 99.717"
       id="path504" />
    <circle
       cx="34.617699"
       cy="75.6436"
       r="3.3499999"
       id="circle506" />
    <path
       d="m 58.3529,34.4105 a 1.0001,1.0001 0 0 0 0.7245,0.3108"
       id="path508" />
    <path
       d="m 29.7986,74.1339 a 5.05,5.05 0 0 0 1.6165,5.4143"
       id="path510" />
    <path
       d="M 84.159,34.7212 H 82.2758"
       id="path512" />
    <path
       d="m 99.717,87.995 a 5.05,5.05 0 0 0 3.2026,-1.1454"
       id="path514" />
    <path
       d="m 59.0774,34.7212 h 1.8831"
       id="path516" />
    <path
       d="m 43.6694,29.8587 v 0"
       id="path518" />
    <path
       d="m 31.4151,79.5482 8.9017,7.3013"
       id="path520" />
    <path
       d="m 84.159,34.7212 a 0.9999,0.9999 0 0 0 0.728,-0.3144"
       id="path522" />
    <path
       d="m 52.1472,27.8876 a 5.05,5.05 0 0 0 -8.4778,1.9711"
       id="path524" />
    <path
       d="M 99.5669,29.8587 A 5.05,5.05 0 0 0 91.0892,27.8876"
       id="path526" />
    <circle
       cx="108.6186"
       cy="75.6436"
       r="3.3499999"
       id="circle528" />
    <path
       d="m 81.7758,34.2213 a 0.5,0.5 0 0 0 0.5,0.5"
       id="path530" />
    <path
       d="M 43.6694,29.8587 29.7986,74.1339"
       id="path532" />
    <circle
       cx="48.4884"
       cy="31.3685"
       r="3.3499999"
       id="circle534" />
    <circle
       cx="94.747902"
       cy="31.3685"
       r="3.3499999"
       id="circle536" />
    <path
       d="m 111.8212,79.5482 -8.9016,7.3014"
       id="path538" />
    <path
       d="m 99.5669,29.8587 v 0"
       id="path540" />
    <path
       d="m 60.9605,34.7212 a 0.5,0.5 0 0 0 0.5,-0.5"
       id="path542" />
    <path
       d="m 99.5669,29.8587 13.8757,44.2909"
       id="path544" />
    <path
       d="m 111.8212,79.5482 a 5.0502,5.0502 0 0 0 1.6215,-5.3986"
       id="path546" />
    <path
       d="m 40.3168,86.8495 a 5.0499,5.0499 0 0 0 3.2026,1.1455"
       id="path548" />
    <path
       d="m 81.768,26.7636 v 7.4563"
       id="path550" />
    <path
       d="m 81.268,26.2636 0.5,0.5"
       id="path552" />
    <path
       d="m 71.068,26.2636 h 10.2"
       id="path554" />
    <path
       d="m 71.068,26.2636 -0.5,0.5"
       id="path556" />
    <path
       d="m 70.568,26.7636 v 6.95"
       id="path558" />
    <path
       d="m 68.668,26.7636 v 6.95"
       id="path560" />
    <path
       d="m 68.168,26.2636 0.5,0.5"
       id="path562" />
    <path
       d="m 61.968,26.2636 h 6.2"
       id="path564" />
    <path
       d="m 61.968,26.2636 -0.5,0.5"
       id="path566" />
    <path
       d="M 61.468,34.2199 V 26.7636"
       id="path568" />
    <path
       d="m 68.668,33.7136 a 0.95,0.95 0 0 0 1.9,0"
       id="path570" />
  </g>
  <g
     style="fill:#ffffff;fill-opacity:1;stroke:none"
     id="g870"
     transform="translate(-29.442506,-26.1386)">
    <circle
       cx="63.081001"
       cy="34.525002"
       r="0.15000001"
       id="circle574" />
    <circle
       cx="64.081001"
       cy="32.625"
       r="0.15000001"
       id="circle576" />
    <circle
       cx="64.081001"
       cy="36.325001"
       r="0.15000001"
       id="circle578" />
    <circle
       cx="63.081001"
       cy="35.424999"
       r="0.15000001"
       id="circle580" />
    <circle
       cx="64.081001"
       cy="37.224998"
       r="0.15000001"
       id="circle582" />
    <circle
       cx="62.131001"
       cy="35.424999"
       r="0.15000001"
       id="circle584" />
    <circle
       cx="63.081001"
       cy="32.625"
       r="0.15000001"
       id="circle586" />
    <circle
       cx="64.081001"
       cy="34.525002"
       r="0.15000001"
       id="circle588" />
    <circle
       cx="64.081001"
       cy="35.424999"
       r="0.15000001"
       id="circle590" />
    <circle
       cx="62.131001"
       cy="33.625"
       r="0.15000001"
       id="circle592" />
    <circle
       cx="62.131001"
       cy="37.224998"
       r="0.15000001"
       id="circle594" />
    <circle
       cx="63.081001"
       cy="36.325001"
       r="0.15000001"
       id="circle596" />
    <circle
       cx="63.081001"
       cy="33.625"
       r="0.15000001"
       id="circle598" />
    <circle
       cx="62.131001"
       cy="32.625"
       r="0.15000001"
       id="circle600" />
    <circle
       cx="63.081001"
       cy="37.224998"
       r="0.15000001"
       id="circle602" />
    <circle
       cx="62.131001"
       cy="36.325001"
       r="0.15000001"
       id="circle604" />
    <circle
       cx="62.131001"
       cy="34.525002"
       r="0.15000001"
       id="circle606" />
    <circle
       cx="64.081001"
       cy="33.625"
       r="0.15000001"
       id="circle608" />
    <circle
       cx="96.231003"
       cy="61.525002"
       r="0.15000001"
       id="circle610" />
    <circle
       cx="97.081001"
       cy="66.425003"
       r="0.15000001"
       id="circle612" />
    <circle
       cx="89.181"
       cy="60.325001"
       r="0.15000001"
       id="circle614" />
    <circle
       cx="90.630997"
       cy="61.724998"
       r="0.15000001"
       id="circle616" />
    <circle
       cx="91.081001"
       cy="69.099998"
       r="0.15000001"
       id="circle618" />
    <circle
       cx="87.130997"
       cy="73.425003"
       r="0.15000001"
       id="circle620" />
    <circle
       cx="84.655998"
       cy="47.806"
       r="0.15000001"
       id="circle622" />
    <circle
       cx="71.081001"
       cy="32.525002"
       r="0.15000001"
       id="circle624" />
    <circle
       cx="71.130997"
       cy="36.275002"
       r="0.15000001"
       id="circle626" />
    <circle
       cx="97.681"
       cy="65.925003"
       r="0.15000001"
       id="circle628" />
    <circle
       cx="71.081001"
       cy="33.424999"
       r="0.15000001"
       id="circle630" />
    <circle
       cx="86.431"
       cy="46.025002"
       r="0.15000001"
       id="circle632" />
    <circle
       cx="85.431"
       cy="46.025002"
       r="0.15000001"
       id="circle634" />
    <circle
       cx="72.130997"
       cy="34.375"
       r="0.15000001"
       id="circle636" />
    <circle
       cx="72.181"
       cy="37.174999"
       r="0.15000001"
       id="circle638" />
    <circle
       cx="73.181"
       cy="36.275002"
       r="0.15000001"
       id="circle640" />
    <circle
       cx="73.130997"
       cy="34.375"
       r="0.15000001"
       id="circle642" />
    <circle
       cx="72.181"
       cy="35.474998"
       r="0.15000001"
       id="circle644" />
    <circle
       cx="85.356003"
       cy="47.806"
       r="0.15000001"
       id="circle646" />
    <circle
       cx="73.130997"
       cy="33.424999"
       r="0.15000001"
       id="circle648" />
    <circle
       cx="71.081001"
       cy="34.375"
       r="0.15000001"
       id="circle650" />
    <circle
       cx="97.831001"
       cy="58.224998"
       r="0.15000001"
       id="circle652" />
    <circle
       cx="72.130997"
       cy="32.525002"
       r="0.15000001"
       id="circle654" />
    <circle
       cx="73.181"
       cy="37.174999"
       r="0.15000001"
       id="circle656" />
    <circle
       cx="71.130997"
       cy="37.174999"
       r="0.15000001"
       id="circle658" />
    <circle
       cx="72.181"
       cy="36.275002"
       r="0.15000001"
       id="circle660" />
    <circle
       cx="71.130997"
       cy="35.474998"
       r="0.15000001"
       id="circle662" />
    <circle
       cx="73.130997"
       cy="32.525002"
       r="0.15000001"
       id="circle664" />
    <circle
       cx="85.405998"
       cy="46.905998"
       r="0.15000001"
       id="circle666" />
    <circle
       cx="84.655998"
       cy="46.006001"
       r="0.15000001"
       id="circle668" />
    <circle
       cx="71.931"
       cy="65.287498"
       r="0.15000001"
       id="circle670" />
    <circle
       cx="84.655998"
       cy="46.905998"
       r="0.15000001"
       id="circle672" />
    <circle
       cx="72.130997"
       cy="33.424999"
       r="0.15000001"
       id="circle674" />
    <circle
       cx="73.181"
       cy="35.474998"
       r="0.15000001"
       id="circle676" />
    <circle
       cx="56.331001"
       cy="63.775002"
       r="0.15000001"
       id="circle678" />
    <circle
       cx="67.081001"
       cy="32.674999"
       r="0.15000001"
       id="circle680" />
    <circle
       cx="67.030998"
       cy="35.424999"
       r="0.15000001"
       id="circle682" />
    <circle
       cx="95.806"
       cy="46.355999"
       r="0.15000001"
       id="circle684" />
    <circle
       cx="68.081001"
       cy="33.625"
       r="0.15000001"
       id="circle686" />
    <circle
       cx="66.030998"
       cy="33.625"
       r="0.15000001"
       id="circle688" />
    <circle
       cx="68.130997"
       cy="32.674999"
       r="0.15000001"
       id="circle690" />
    <circle
       cx="67.030998"
       cy="36.275002"
       r="0.15000001"
       id="circle692" />
    <circle
       cx="66.030998"
       cy="36.275002"
       r="0.15000001"
       id="circle694" />
    <circle
       cx="67.030998"
       cy="33.625"
       r="0.15000001"
       id="circle696" />
    <circle
       cx="68.081001"
       cy="35.424999"
       r="0.15000001"
       id="circle698" />
    <circle
       cx="68.081001"
       cy="36.275002"
       r="0.15000001"
       id="circle700" />
    <circle
       cx="66.030998"
       cy="37.174999"
       r="0.15000001"
       id="circle702" />
    <circle
       cx="66.030998"
       cy="35.424999"
       r="0.15000001"
       id="circle704" />
    <circle
       cx="66.030998"
       cy="34.474998"
       r="0.15000001"
       id="circle706" />
    <circle
       cx="67.030998"
       cy="37.174999"
       r="0.15000001"
       id="circle708" />
    <circle
       cx="66.081001"
       cy="32.674999"
       r="0.15000001"
       id="circle710" />
    <circle
       cx="95.806"
       cy="46.355999"
       r="0.15000001"
       id="circle712" />
    <circle
       cx="68.081001"
       cy="37.174999"
       r="0.15000001"
       id="circle714" />
    <circle
       cx="67.030998"
       cy="34.474998"
       r="0.15000001"
       id="circle716" />
    <circle
       cx="68.081001"
       cy="34.474998"
       r="0.15000001"
       id="circle718" />
    <circle
       cx="95.206001"
       cy="44.706001"
       r="0.15000001"
       id="circle720" />
    <circle
       cx="87.505997"
       cy="45.905998"
       r="0.15000001"
       id="circle722" />
    <circle
       cx="92.456001"
       cy="61.150002"
       r="0.15000001"
       id="circle724" />
    <circle
       cx="89.280998"
       cy="57.974998"
       r="0.15000001"
       id="circle726" />
    <circle
       cx="96.681"
       cy="59.375"
       r="0.15000001"
       id="circle728" />
    <circle
       cx="94.530998"
       cy="66.375"
       r="0.15000001"
       id="circle730" />
    <circle
       cx="94.530998"
       cy="70.985001"
       r="0.15000001"
       id="circle732" />
    <circle
       cx="97.030998"
       cy="61.224998"
       r="0.15000001"
       id="circle734" />
    <circle
       cx="87.280998"
       cy="71.425003"
       r="0.15000001"
       id="circle736" />
    <circle
       cx="91.981003"
       cy="69.025002"
       r="0.15000001"
       id="circle738" />
    <circle
       cx="93.280998"
       cy="68.625"
       r="0.15000001"
       id="circle740" />
    <circle
       cx="88.630997"
       cy="70.925003"
       r="0.15000001"
       id="circle742" />
    <circle
       cx="78.130997"
       cy="35.974998"
       r="0.15000001"
       id="circle744" />
    <circle
       cx="99.681"
       cy="69.375"
       r="0.15000001"
       id="circle746" />
    <circle
       cx="91.255997"
       cy="47.506001"
       r="0.15000001"
       id="circle748" />
    <circle
       cx="69.231003"
       cy="79.237503"
       r="0.15000001"
       id="circle750" />
    <circle
       cx="92.606003"
       cy="46.105999"
       r="0.15000001"
       id="circle752" />
    <circle
       cx="92.606003"
       cy="44.806"
       r="0.15000001"
       id="circle754" />
    <circle
       cx="75.130997"
       cy="32.525002"
       r="0.15000001"
       id="circle756" />
    <circle
       cx="100.4388"
       cy="63.282799"
       r="0.15000001"
       id="circle758" />
    <circle
       cx="91.431"
       cy="67.324997"
       r="0.15000001"
       id="circle760" />
    <circle
       cx="89.956001"
       cy="46.105999"
       r="0.15000001"
       id="circle762" />
    <circle
       cx="78.130997"
       cy="32.525002"
       r="0.15000001"
       id="circle764" />
    <circle
       cx="91.981003"
       cy="74.724998"
       r="0.15000001"
       id="circle766" />
    <circle
       cx="89.956001"
       cy="47.506001"
       r="0.15000001"
       id="circle768" />
    <circle
       cx="75.181"
       cy="34.825001"
       r="0.15000001"
       id="circle770" />
    <circle
       cx="55.851002"
       cy="45.875"
       r="0.15000001"
       id="circle772" />
    <circle
       cx="78.130997"
       cy="34.825001"
       r="0.15000001"
       id="circle774" />
    <circle
       cx="69.331001"
       cy="71.637497"
       r="0.15000001"
       id="circle776" />
    <circle
       cx="75.130997"
       cy="33.724998"
       r="0.15000001"
       id="circle778" />
    <circle
       cx="99.481003"
       cy="86.324997"
       r="0.15000001"
       id="circle780" />
    <circle
       cx="96.431"
       cy="64.875"
       r="0.15000001"
       id="circle782" />
    <circle
       cx="91.255997"
       cy="44.806"
       r="0.15000001"
       id="circle784" />
    <circle
       cx="99.056"
       cy="49.855999"
       r="0.15000001"
       id="circle786" />
    <circle
       cx="94.030998"
       cy="62.724998"
       r="0.15000001"
       id="circle788" />
    <circle
       cx="94.030998"
       cy="64.875"
       r="0.15000001"
       id="circle790" />
    <circle
       cx="60.401001"
       cy="45.883701"
       r="0.15000001"
       id="circle792" />
    <circle
       cx="86.206001"
       cy="48.506001"
       r="0.15000001"
       id="circle794" />
    <circle
       cx="99.931"
       cy="83.275002"
       r="0.15000001"
       id="circle796" />
    <circle
       cx="88.280998"
       cy="41.474998"
       r="0.15000001"
       id="circle798" />
    <circle
       cx="95.280998"
       cy="62.724998"
       r="0.15000001"
       id="circle800" />
    <circle
       cx="76.181"
       cy="35.974998"
       r="0.15000001"
       id="circle802" />
    <circle
       cx="77.181"
       cy="33.724998"
       r="0.15000001"
       id="circle804" />
    <circle
       cx="76.130997"
       cy="32.525002"
       r="0.15000001"
       id="circle806" />
    <circle
       cx="94.030998"
       cy="63.875"
       r="0.15000001"
       id="circle808" />
    <circle
       cx="92.331001"
       cy="82.974998"
       r="0.15000001"
       id="circle810" />
    <circle
       cx="95.280998"
       cy="64.875"
       r="0.15000001"
       id="circle812" />
    <circle
       cx="96.431"
       cy="63.825001"
       r="0.15000001"
       id="circle814" />
    <circle
       cx="77.231003"
       cy="35.974998"
       r="0.15000001"
       id="circle816" />
    <circle
       cx="99.181"
       cy="67.074997"
       r="0.15000001"
       id="circle818" />
    <circle
       cx="89.956001"
       cy="44.806"
       r="0.15000001"
       id="circle820" />
    <circle
       cx="77.231003"
       cy="34.825001"
       r="0.15000001"
       id="circle822" />
    <circle
       cx="87.130997"
       cy="69.625"
       r="0.15000001"
       id="circle824" />
    <circle
       cx="91.255997"
       cy="46.105999"
       r="0.15000001"
       id="circle826" />
    <circle
       cx="92.481003"
       cy="54.025002"
       r="0.15000001"
       id="circle828" />
    <circle
       cx="75.181"
       cy="35.974998"
       r="0.15000001"
       id="circle830" />
    <circle
       cx="92.380997"
       cy="86.224998"
       r="0.15000001"
       id="circle832" />
    <circle
       cx="96.380997"
       cy="62.724998"
       r="0.15000001"
       id="circle834" />
    <circle
       cx="95.630997"
       cy="55.224998"
       r="0.15000001"
       id="circle836" />
    <circle
       cx="95.331001"
       cy="70.025002"
       r="0.15000001"
       id="circle838" />
    <circle
       cx="88.981003"
       cy="62.974998"
       r="0.15000001"
       id="circle840" />
    <circle
       cx="92.606003"
       cy="47.506001"
       r="0.15000001"
       id="circle842" />
    <circle
       cx="77.130997"
       cy="32.525002"
       r="0.15000001"
       id="circle844" />
    <circle
       cx="94.181"
       cy="61.075001"
       r="0.15000001"
       id="circle846" />
    <circle
       cx="76.181"
       cy="34.825001"
       r="0.15000001"
       id="circle848" />
    <circle
       cx="95.280998"
       cy="63.825001"
       r="0.15000001"
       id="circle850" />
    <circle
       cx="96.681"
       cy="56.775002"
       r="0.15000001"
       id="circle852" />
    <circle
       cx="76.130997"
       cy="33.724998"
       r="0.15000001"
       id="circle854" />
    <circle
       cx="78.130997"
       cy="33.724998"
       r="0.15000001"
       id="circle856" />
    <circle
       cx="92.880997"
       cy="59.025002"
       r="0.15000001"
       id="circle858" />
    <circle
       cx="76.731003"
       cy="75.037498"
       r="0.15000001"
       id="circle860" />
    <circle
       cx="61.306"
       cy="62.825001"
       r="0.5"
       id="circle862" />
    <circle
       cx="61.306"
       cy="82.824997"
       r="0.5"
       id="circle864" />
    <circle
       cx="98.881699"
       cy="82.574997"
       r="0.30000001"
       id="circle866" />
    <circle
       cx="93.1017"
       cy="82.574997"
       r="0.30000001"
       id="circle868" />
  </g>
  <g
     style="fill:none;stroke:#ffffff;stroke-width:0.6;stroke-linecap:round;stroke-linejoin:round;stroke-opacity:1"
     id="g880"
     transform="translate(-29.442506,-26.1386)">
    <path
       d="m 100.3117,82.645 v -1.1"
       id="path872" />
    <path
       d="m 100.3117,86.665 v -0.8"
       id="path874" />
    <path
       d="m 91.6717,82.645 v -1.1"
       id="path876" />
    <path
       d="m 91.6717,86.665 v -0.8"
       id="path878" />
  </g>
  <g
     style="fill:#ffffff;fill-opacity:1;stroke:none"
     id="g886"
     transform="translate(-29.442506,-26.1386)">
    <circle
       cx="69.181"
       cy="45.224998"
       r="1.35"
       id="circle882" />
    <circle
       cx="74.181"
       cy="45.224998"
       r="1.35"
       id="circle884" />
  </g>
</svg>
