<?xml version="1.0" encoding="UTF-8" standalone="no"?>
<svg
   version="1.1"
   width="114.76287mm"
   height="62.470001mm"
   viewBox="0 0 114.76287 62.470002"
   id="svg784"
   sodipodi:docname="pcbb.svg"
   xmlns:inkscape="http://www.inkscape.org/namespaces/inkscape"
   xmlns:sodipodi="http://sodipodi.sourceforge.net/DTD/sodipodi-0.dtd"
   xmlns="http://www.w3.org/2000/svg"
   xmlns:svg="http://www.w3.org/2000/svg">
  <defs
     id="defs788" />
  <sodipodi:namedview
     id="namedview786"
     pagecolor="#ffffff"
     bordercolor="#000000"
     borderopacity="0.25"
     inkscape:showpageshadow="2"
     inkscape:pageopacity="0.0"
     inkscape:pagecheckerboard="0"
     inkscape:deskcolor="#d1d1d1"
     inkscape:document-units="mm" />
  <title
     id="title2">SVG Image created as pcbb.svg date 2025-09-14T05:51:27+0000 </title>
  <desc
     id="desc4">Image generated by PCBNEW </desc>
  <g
     style="fill:#000000;fill-opacity:1;stroke:#000000;stroke-linecap:round;stroke-linejoin:round;stroke-opacity:1"
     id="g6"
     transform="translate(-17.4578,-16.6)" />
  <g
     style="fill:none;stroke:#4d7fc4;stroke-width:0.9;stroke-linecap:round;stroke-linejoin:round;stroke-opacity:1"
     id="g18"
     transform="translate(-17.4578,-16.6)">
    <path
       d="m 118.7385,73.595 v -1.1"
       id="path8" />
    <path
       d="m 118.7385,77.615 v -0.8"
       id="path10" />
    <path
       d="m 110.0985,73.595 v -1.1"
       id="path12" />
    <path
       d="m 110.0985,77.615 v -0.8"
       id="path14" />
    <path
       style="fill:#4d7fc4;fill-opacity:1;fill-rule:evenodd;stroke:none"
       d="m 90.9578,41.365 0.0157,0.1537 0.0555,0.1675 0.0927,0.1502 0.1248,0.1248 0.1501,0.0926 0.1675,0.0555 0.1537,0.0157 h 2.28 l 0.1537,-0.0157 0.1675,-0.0555 0.1502,-0.0926 0.1248,-0.1248 0.0926,-0.1502 0.0555,-0.1675 0.0157,-0.1537 v -2.28 L 94.7421,38.9313 94.6866,38.7638 94.594,38.6136 94.4692,38.4888 94.319,38.3962 94.1515,38.3407 93.9978,38.325 h -2.28 l -0.1537,0.0157 -0.1675,0.0555 -0.1501,0.0926 -0.1248,0.1248 -0.0927,0.1502 -0.0555,0.1675 -0.0157,0.1537 z"
       id="path16" />
  </g>
  <g
     style="fill:#4d7fc4;fill-opacity:1;stroke:none"
     id="g304"
     transform="translate(-17.4578,-16.6)">
    <circle
       cx="97.857803"
       cy="40.224998"
       r="1.9"
       id="circle20" />
    <path
       style="fill:#4d7fc4;fill-opacity:1;fill-rule:evenodd;stroke:none"
       d="m 99.8948,22.8136 v -4.3 h -0.7 v 4.3 z"
       id="path22" />
    <path
       style="fill:#4d7fc4;fill-opacity:1;fill-rule:evenodd;stroke:none"
       d="m 98.8948,22.8136 v -4.3 h -0.7 v 4.3 z"
       id="path24" />
    <path
       style="fill:#4d7fc4;fill-opacity:1;fill-rule:evenodd;stroke:none"
       d="m 97.8948,22.8136 v -4.3 h -0.7 v 4.3 z"
       id="path26" />
    <path
       style="fill:#4d7fc4;fill-opacity:1;fill-rule:evenodd;stroke:none"
       d="m 96.8948,22.8136 v -4.3 h -0.7 v 4.3 z"
       id="path28" />
    <path
       style="fill:#4d7fc4;fill-opacity:1;fill-rule:evenodd;stroke:none"
       d="m 95.8948,22.8136 v -4.3 h -0.7 v 4.3 z"
       id="path30" />
    <path
       style="fill:#4d7fc4;fill-opacity:1;fill-rule:evenodd;stroke:none"
       d="m 94.8948,22.8136 v -4.3 h -0.7 v 4.3 z"
       id="path32" />
    <path
       style="fill:#4d7fc4;fill-opacity:1;fill-rule:evenodd;stroke:none"
       d="m 93.8948,22.8136 v -4.3 h -0.7 v 4.3 z"
       id="path34" />
    <path
       style="fill:#4d7fc4;fill-opacity:1;fill-rule:evenodd;stroke:none"
       d="m 92.8948,22.8136 v -4.3 h -0.7 v 4.3 z"
       id="path36" />
    <path
       style="fill:#4d7fc4;fill-opacity:1;fill-rule:evenodd;stroke:none"
       d="m 91.8948,22.8136 v -4.3 h -0.7 v 4.3 z"
       id="path38" />
    <path
       style="fill:#4d7fc4;fill-opacity:1;fill-rule:evenodd;stroke:none"
       d="m 90.8948,22.8136 v -4.3 h -0.7 v 4.3 z"
       id="path40" />
    <path
       style="fill:#4d7fc4;fill-opacity:1;fill-rule:evenodd;stroke:none"
       d="m 89.8948,22.8136 v -4.3 h -0.7 v 4.3 z"
       id="path42" />
    <path
       style="fill:#4d7fc4;fill-opacity:1;fill-rule:evenodd;stroke:none"
       d="m 86.8948,22.8136 v -4.3 h -0.7 v 4.3 z"
       id="path44" />
    <path
       style="fill:#4d7fc4;fill-opacity:1;fill-rule:evenodd;stroke:none"
       d="m 85.8948,22.8136 v -4.3 h -0.7 v 4.3 z"
       id="path46" />
    <path
       style="fill:#4d7fc4;fill-opacity:1;fill-rule:evenodd;stroke:none"
       d="m 84.8948,22.8136 v -4.3 h -0.7 v 4.3 z"
       id="path48" />
    <path
       style="fill:#4d7fc4;fill-opacity:1;fill-rule:evenodd;stroke:none"
       d="m 83.8948,22.8136 v -4.3 h -0.7 v 4.3 z"
       id="path50" />
    <path
       style="fill:#4d7fc4;fill-opacity:1;fill-rule:evenodd;stroke:none"
       d="m 82.8948,22.8136 v -4.3 h -0.7 v 4.3 z"
       id="path52" />
    <path
       style="fill:#4d7fc4;fill-opacity:1;fill-rule:evenodd;stroke:none"
       d="m 81.8948,22.8136 v -4.3 h -0.7 v 4.3 z"
       id="path54" />
    <path
       style="fill:#4d7fc4;fill-opacity:1;fill-rule:evenodd;stroke:none"
       d="m 80.8948,22.8136 v -4.3 h -0.7 v 4.3 z"
       id="path56" />
    <circle
       cx="81.507797"
       cy="25.475"
       r="0.22499999"
       id="circle58" />
    <circle
       cx="82.507797"
       cy="23.575001"
       r="0.22499999"
       id="circle60" />
    <circle
       cx="82.507797"
       cy="27.275"
       r="0.22499999"
       id="circle62" />
    <circle
       cx="81.507797"
       cy="26.375"
       r="0.22499999"
       id="circle64" />
    <circle
       cx="82.507797"
       cy="28.174999"
       r="0.22499999"
       id="circle66" />
    <circle
       cx="80.5578"
       cy="26.375"
       r="0.22499999"
       id="circle68" />
    <circle
       cx="81.507797"
       cy="23.575001"
       r="0.22499999"
       id="circle70" />
    <circle
       cx="82.507797"
       cy="25.475"
       r="0.22499999"
       id="circle72" />
    <circle
       cx="82.507797"
       cy="26.375"
       r="0.22499999"
       id="circle74" />
    <circle
       cx="80.5578"
       cy="24.575001"
       r="0.22499999"
       id="circle76" />
    <circle
       cx="80.5578"
       cy="28.174999"
       r="0.22499999"
       id="circle78" />
    <circle
       cx="81.507797"
       cy="27.275"
       r="0.22499999"
       id="circle80" />
    <circle
       cx="81.507797"
       cy="24.575001"
       r="0.22499999"
       id="circle82" />
    <circle
       cx="80.5578"
       cy="23.575001"
       r="0.22499999"
       id="circle84" />
    <circle
       cx="81.507797"
       cy="28.174999"
       r="0.22499999"
       id="circle86" />
    <circle
       cx="80.5578"
       cy="27.275"
       r="0.22499999"
       id="circle88" />
    <circle
       cx="80.5578"
       cy="25.475"
       r="0.22499999"
       id="circle90" />
    <circle
       cx="82.507797"
       cy="24.575001"
       r="0.22499999"
       id="circle92" />
    <circle
       cx="114.6578"
       cy="52.474998"
       r="0.22499999"
       id="circle94" />
    <circle
       cx="115.5078"
       cy="57.375"
       r="0.22499999"
       id="circle96" />
    <circle
       cx="95.157799"
       cy="65.987503"
       r="0.22499999"
       id="circle98" />
    <circle
       cx="109.5078"
       cy="60.049999"
       r="0.22499999"
       id="circle100" />
    <circle
       cx="105.5578"
       cy="64.375"
       r="0.22499999"
       id="circle102" />
    <circle
       cx="119.1078"
       cy="34.424999"
       r="0.22499999"
       id="circle104" />
    <circle
       cx="89.507797"
       cy="23.475"
       r="0.22499999"
       id="circle106" />
    <circle
       cx="89.5578"
       cy="27.225"
       r="0.22499999"
       id="circle108" />
    <circle
       cx="116.1078"
       cy="56.875"
       r="0.22499999"
       id="circle110" />
    <circle
       cx="89.507797"
       cy="24.375"
       r="0.22499999"
       id="circle112" />
    <circle
       cx="90.5578"
       cy="25.325001"
       r="0.22499999"
       id="circle114" />
    <circle
       cx="90.607803"
       cy="28.125"
       r="0.22499999"
       id="circle116" />
    <circle
       cx="91.607803"
       cy="27.225"
       r="0.22499999"
       id="circle118" />
    <circle
       cx="112.6578"
       cy="41.224998"
       r="0.22499999"
       id="circle120" />
    <circle
       cx="91.5578"
       cy="25.325001"
       r="0.22499999"
       id="circle122" />
    <circle
       cx="90.607803"
       cy="26.424999"
       r="0.22499999"
       id="circle124" />
    <circle
       cx="117.3578"
       cy="36.125"
       r="0.22499999"
       id="circle126" />
    <circle
       cx="118.4078"
       cy="34.424999"
       r="0.22499999"
       id="circle128" />
    <circle
       cx="91.5578"
       cy="24.375"
       r="0.22499999"
       id="circle130" />
    <circle
       cx="89.507797"
       cy="25.325001"
       r="0.22499999"
       id="circle132" />
    <circle
       cx="116.2578"
       cy="49.174999"
       r="0.22499999"
       id="circle134" />
    <circle
       cx="90.5578"
       cy="23.475"
       r="0.22499999"
       id="circle136" />
    <circle
       cx="91.607803"
       cy="28.125"
       r="0.22499999"
       id="circle138" />
    <circle
       cx="89.5578"
       cy="28.125"
       r="0.22499999"
       id="circle140" />
    <circle
       cx="90.607803"
       cy="27.225"
       r="0.22499999"
       id="circle142" />
    <circle
       cx="89.5578"
       cy="26.424999"
       r="0.22499999"
       id="circle144" />
    <circle
       cx="91.5578"
       cy="23.475"
       r="0.22499999"
       id="circle146" />
    <circle
       cx="118.3578"
       cy="35.325001"
       r="0.22499999"
       id="circle148" />
    <circle
       cx="119.1078"
       cy="36.224998"
       r="0.22499999"
       id="circle150" />
    <circle
       cx="90.357803"
       cy="56.237499"
       r="0.22499999"
       id="circle152" />
    <circle
       cx="119.1078"
       cy="35.325001"
       r="0.22499999"
       id="circle154" />
    <circle
       cx="90.5578"
       cy="24.375"
       r="0.22499999"
       id="circle156" />
    <circle
       cx="91.607803"
       cy="26.424999"
       r="0.22499999"
       id="circle158" />
    <circle
       cx="74.757797"
       cy="54.724998"
       r="0.22499999"
       id="circle160" />
    <circle
       cx="85.507797"
       cy="23.625"
       r="0.22499999"
       id="circle162" />
    <circle
       cx="85.457802"
       cy="26.375"
       r="0.22499999"
       id="circle164" />
    <circle
       cx="107.9578"
       cy="35.875"
       r="0.22499999"
       id="circle166" />
    <circle
       cx="86.507797"
       cy="24.575001"
       r="0.22499999"
       id="circle168" />
    <circle
       cx="84.457802"
       cy="24.575001"
       r="0.22499999"
       id="circle170" />
    <circle
       cx="86.5578"
       cy="23.625"
       r="0.22499999"
       id="circle172" />
    <circle
       cx="85.457802"
       cy="27.225"
       r="0.22499999"
       id="circle174" />
    <circle
       cx="84.457802"
       cy="27.225"
       r="0.22499999"
       id="circle176" />
    <circle
       cx="85.457802"
       cy="24.575001"
       r="0.22499999"
       id="circle178" />
    <circle
       cx="86.507797"
       cy="26.375"
       r="0.22499999"
       id="circle180" />
    <circle
       cx="86.507797"
       cy="27.225"
       r="0.22499999"
       id="circle182" />
    <circle
       cx="84.457802"
       cy="28.125"
       r="0.22499999"
       id="circle184" />
    <circle
       cx="84.457802"
       cy="26.375"
       r="0.22499999"
       id="circle186" />
    <circle
       cx="84.457802"
       cy="25.424999"
       r="0.22499999"
       id="circle188" />
    <circle
       cx="85.457802"
       cy="28.125"
       r="0.22499999"
       id="circle190" />
    <circle
       cx="84.507797"
       cy="23.625"
       r="0.22499999"
       id="circle192" />
    <circle
       cx="107.9578"
       cy="35.875"
       r="0.22499999"
       id="circle194" />
    <circle
       cx="86.507797"
       cy="28.125"
       r="0.22499999"
       id="circle196" />
    <circle
       cx="85.457802"
       cy="25.424999"
       r="0.22499999"
       id="circle198" />
    <circle
       cx="86.507797"
       cy="25.424999"
       r="0.22499999"
       id="circle200" />
    <circle
       cx="108.5578"
       cy="37.525002"
       r="0.22499999"
       id="circle202" />
    <circle
       cx="116.2578"
       cy="36.325001"
       r="0.22499999"
       id="circle204" />
    <circle
       cx="115.1078"
       cy="50.325001"
       r="0.22499999"
       id="circle206" />
    <circle
       cx="112.9578"
       cy="57.325001"
       r="0.22499999"
       id="circle208" />
    <circle
       cx="112.9578"
       cy="61.935001"
       r="0.22499999"
       id="circle210" />
    <circle
       cx="115.4578"
       cy="52.174999"
       r="0.22499999"
       id="circle212" />
    <circle
       cx="105.7078"
       cy="62.375"
       r="0.22499999"
       id="circle214" />
    <circle
       cx="110.4078"
       cy="59.974998"
       r="0.22499999"
       id="circle216" />
    <circle
       cx="111.7078"
       cy="59.575001"
       r="0.22499999"
       id="circle218" />
    <circle
       cx="107.0578"
       cy="61.875"
       r="0.22499999"
       id="circle220" />
    <circle
       cx="118.1078"
       cy="60.325001"
       r="0.22499999"
       id="circle222" />
    <circle
       cx="112.5078"
       cy="34.724998"
       r="0.22499999"
       id="circle224" />
    <circle
       cx="87.657799"
       cy="70.1875"
       r="0.22499999"
       id="circle226" />
    <circle
       cx="111.1578"
       cy="36.125"
       r="0.22499999"
       id="circle228" />
    <circle
       cx="111.1578"
       cy="37.424999"
       r="0.22499999"
       id="circle230" />
    <circle
       cx="118.8656"
       cy="54.2328"
       r="0.22499999"
       id="circle232" />
    <circle
       cx="109.8578"
       cy="58.275002"
       r="0.22499999"
       id="circle234" />
    <circle
       cx="113.8078"
       cy="36.125"
       r="0.22499999"
       id="circle236" />
    <circle
       cx="110.4078"
       cy="65.675003"
       r="0.22499999"
       id="circle238" />
    <circle
       cx="113.8078"
       cy="34.724998"
       r="0.22499999"
       id="circle240" />
    <circle
       cx="74.277802"
       cy="36.825001"
       r="0.22499999"
       id="circle242" />
    <circle
       cx="87.757797"
       cy="62.587502"
       r="0.22499999"
       id="circle244" />
    <circle
       cx="117.9078"
       cy="77.275002"
       r="0.22499999"
       id="circle246" />
    <circle
       cx="114.8578"
       cy="55.825001"
       r="0.22499999"
       id="circle248" />
    <circle
       cx="112.5078"
       cy="37.424999"
       r="0.22499999"
       id="circle250" />
    <circle
       cx="113.4828"
       cy="41.200001"
       r="0.22499999"
       id="circle252" />
    <circle
       cx="111.7078"
       cy="47.525002"
       r="0.22499999"
       id="circle254" />
    <circle
       cx="104.7078"
       cy="32.375"
       r="0.22499999"
       id="circle256" />
    <circle
       cx="112.4578"
       cy="53.674999"
       r="0.22499999"
       id="circle258" />
    <circle
       cx="112.4578"
       cy="55.825001"
       r="0.22499999"
       id="circle260" />
    <circle
       cx="78.827797"
       cy="36.833698"
       r="0.22499999"
       id="circle262" />
    <circle
       cx="117.5578"
       cy="33.724998"
       r="0.22499999"
       id="circle264" />
    <circle
       cx="118.3578"
       cy="74.224998"
       r="0.22499999"
       id="circle266" />
    <circle
       cx="113.7078"
       cy="53.674999"
       r="0.22499999"
       id="circle268" />
    <circle
       cx="112.4578"
       cy="54.825001"
       r="0.22499999"
       id="circle270" />
    <circle
       cx="110.7578"
       cy="73.925003"
       r="0.22499999"
       id="circle272" />
    <circle
       cx="113.7078"
       cy="55.825001"
       r="0.22499999"
       id="circle274" />
    <circle
       cx="114.8578"
       cy="54.775002"
       r="0.22499999"
       id="circle276" />
    <circle
       cx="117.6078"
       cy="58.025002"
       r="0.22499999"
       id="circle278" />
    <circle
       cx="113.8078"
       cy="37.424999"
       r="0.22499999"
       id="circle280" />
    <circle
       cx="105.5578"
       cy="60.575001"
       r="0.22499999"
       id="circle282" />
    <circle
       cx="112.5078"
       cy="36.125"
       r="0.22499999"
       id="circle284" />
    <circle
       cx="110.8078"
       cy="77.175003"
       r="0.22499999"
       id="circle286" />
    <circle
       cx="115.0578"
       cy="47.875"
       r="0.22499999"
       id="circle288" />
    <circle
       cx="114.8078"
       cy="53.674999"
       r="0.22499999"
       id="circle290" />
    <circle
       cx="113.7578"
       cy="60.974998"
       r="0.22499999"
       id="circle292" />
    <circle
       cx="109.1185"
       cy="51.974998"
       r="0.22499999"
       id="circle294" />
    <circle
       cx="111.1578"
       cy="34.724998"
       r="0.22499999"
       id="circle296" />
    <circle
       cx="112.6078"
       cy="52.025002"
       r="0.22499999"
       id="circle298" />
    <circle
       cx="113.7078"
       cy="54.775002"
       r="0.22499999"
       id="circle300" />
    <circle
       cx="107.5078"
       cy="37.125"
       r="0.22499999"
       id="circle302" />
  </g>
  <g
     style="fill:none;stroke:#4d7fc4;stroke-width:0.2;stroke-linecap:round;stroke-linejoin:round;stroke-opacity:1"
     id="g324"
     transform="translate(-17.4578,-16.6)">
    <path
       d="m 114.6578,52.525 v -0.05"
       id="path306" />
    <path
       d="m 115.5078,57.375 v -4"
       id="path308" />
    <path
       d="m 115.5078,53.375 -0.85,-0.85"
       id="path310" />
    <path
       d="m 109.5078,60.05 v 0.075"
       id="path312" />
    <path
       d="m 105.1078,63.925 0.45,0.45"
       id="path314" />
    <path
       d="M 105.1078,62.1533 V 63.925"
       id="path316" />
    <path
       d="m 106.5362,60.725 -1.4284,1.4283"
       id="path318" />
    <path
       d="m 109.5078,60.125 -0.6,0.6"
       id="path320" />
    <path
       d="m 108.9078,60.725 h -2.3716"
       id="path322" />
  </g>
  <g
     style="fill:none;stroke:#4d7fc4;stroke-width:0.381;stroke-linecap:round;stroke-linejoin:round;stroke-opacity:1"
     id="g334"
     transform="translate(-17.4578,-16.6)">
    <path
       d="m 116.2578,56.725 -0.15,0.15"
       id="path326" />
    <path
       d="m 91.6078,28.125 h 17.75"
       id="path328" />
    <path
       d="m 116.2578,49.175 v 7.55"
       id="path330" />
    <path
       d="m 109.3578,28.125 8,8"
       id="path332" />
  </g>
  <g
     style="fill:none;stroke:#4d7fc4;stroke-width:0.508;stroke-linecap:round;stroke-linejoin:round;stroke-opacity:1"
     id="g346"
     transform="translate(-17.4578,-16.6)">
    <path
       d="m 84.4578,38.075 v -9.95"
       id="path336" />
    <path
       d="m 74.7578,54.725 v -6.95"
       id="path338" />
    <path
       d="m 94.2578,35.875 h 13.7"
       id="path340" />
    <path
       d="m 74.7578,47.775 9.7,-9.7"
       id="path342" />
    <path
       d="m 86.5078,28.125 7.75,7.75"
       id="path344" />
  </g>
  <g
     style="fill:none;stroke:#4d7fc4;stroke-width:0.254;stroke-linecap:round;stroke-linejoin:round;stroke-opacity:1"
     id="g354"
     transform="translate(-17.4578,-16.6)">
    <path
       d="m 108.9078,37.875 -0.35,-0.35"
       id="path348" />
    <path
       d="m 116.2578,36.325 -1.55,1.55"
       id="path350" />
    <path
       d="m 114.7078,37.875 h -5.8"
       id="path352" />
  </g>
  <g
     style="fill:none;stroke:#4d7fc4;stroke-width:0.2;stroke-linecap:round;stroke-linejoin:round;stroke-opacity:1"
     id="g374"
     transform="translate(-17.4578,-16.6)">
    <path
       d="m 112.9578,61.935 v -4.61"
       id="path356" />
    <path
       d="m 110.4078,59.975 -1.319,1.319"
       id="path358" />
    <path
       d="m 106.5888,61.294 -0.881,0.881"
       id="path360" />
    <path
       d="m 105.7078,62.175 v 0.2"
       id="path362" />
    <path
       d="m 109.0888,61.294 h -2.5"
       id="path364" />
    <path
       d="m 107.0578,61.875 h 2.3"
       id="path366" />
    <path
       d="m 111.5578,59.675 h 0.05"
       id="path368" />
    <path
       d="m 111.6078,59.675 0.1,-0.1"
       id="path370" />
    <path
       d="m 109.3578,61.875 2.2,-2.2"
       id="path372" />
  </g>
  <g
     style="fill:#02ffee;fill-opacity:0.4;stroke:none"
     id="g384"
     transform="translate(-17.4578,-16.6)">
    <circle
       cx="17.9578"
       cy="17.1"
       r="0.5"
       id="circle376" />
    <circle
       cx="37.957802"
       cy="17.1"
       r="0.5"
       id="circle378" />
    <circle
       cx="117.3085"
       cy="73.525002"
       r="0.30000001"
       id="circle380" />
    <circle
       cx="111.5285"
       cy="73.525002"
       r="0.30000001"
       id="circle382" />
  </g>
  <g
     style="fill:none;stroke:#02ffee;stroke-width:0.9;stroke-linecap:round;stroke-linejoin:round;stroke-opacity:1"
     id="g396"
     transform="translate(-17.4578,-16.6)">
    <path
       d="m 118.7385,73.595 v -1.1"
       id="path386" />
    <path
       d="m 118.7385,77.615 v -0.8"
       id="path388" />
    <path
       d="m 110.0985,73.595 v -1.1"
       id="path390" />
    <path
       d="m 110.0985,77.615 v -0.8"
       id="path392" />
    <path
       style="fill:#02ffee;fill-opacity:0.4;fill-rule:evenodd;stroke:none"
       d="m 90.9578,41.365 0.0157,0.1537 0.0555,0.1675 0.0927,0.1502 0.1248,0.1248 0.1501,0.0926 0.1675,0.0555 0.1537,0.0157 h 2.28 l 0.1537,-0.0157 0.1675,-0.0555 0.1502,-0.0926 0.1248,-0.1248 0.0926,-0.1502 0.0555,-0.1675 0.0157,-0.1537 v -2.28 L 94.7421,38.9313 94.6866,38.7638 94.594,38.6136 94.4692,38.4888 94.319,38.3962 94.1515,38.3407 93.9978,38.325 h -2.28 l -0.1537,0.0157 -0.1675,0.0555 -0.1501,0.0926 -0.1248,0.1248 -0.0927,0.1502 -0.0555,0.1675 -0.0157,0.1537 z"
       id="path394" />
  </g>
  <g
     style="fill:#02ffee;fill-opacity:0.4;stroke:none"
     id="g436"
     transform="translate(-17.4578,-16.6)">
    <circle
       cx="97.857803"
       cy="40.224998"
       r="1.9"
       id="circle398" />
    <path
       style="fill:#02ffee;fill-opacity:0.4;fill-rule:evenodd;stroke:none"
       d="m 99.8948,22.8136 v -4.3 h -0.7 v 4.3 z"
       id="path400" />
    <path
       style="fill:#02ffee;fill-opacity:0.4;fill-rule:evenodd;stroke:none"
       d="m 98.8948,22.8136 v -4.3 h -0.7 v 4.3 z"
       id="path402" />
    <path
       style="fill:#02ffee;fill-opacity:0.4;fill-rule:evenodd;stroke:none"
       d="m 97.8948,22.8136 v -4.3 h -0.7 v 4.3 z"
       id="path404" />
    <path
       style="fill:#02ffee;fill-opacity:0.4;fill-rule:evenodd;stroke:none"
       d="m 96.8948,22.8136 v -4.3 h -0.7 v 4.3 z"
       id="path406" />
    <path
       style="fill:#02ffee;fill-opacity:0.4;fill-rule:evenodd;stroke:none"
       d="m 95.8948,22.8136 v -4.3 h -0.7 v 4.3 z"
       id="path408" />
    <path
       style="fill:#02ffee;fill-opacity:0.4;fill-rule:evenodd;stroke:none"
       d="m 94.8948,22.8136 v -4.3 h -0.7 v 4.3 z"
       id="path410" />
    <path
       style="fill:#02ffee;fill-opacity:0.4;fill-rule:evenodd;stroke:none"
       d="m 93.8948,22.8136 v -4.3 h -0.7 v 4.3 z"
       id="path412" />
    <path
       style="fill:#02ffee;fill-opacity:0.4;fill-rule:evenodd;stroke:none"
       d="m 92.8948,22.8136 v -4.3 h -0.7 v 4.3 z"
       id="path414" />
    <path
       style="fill:#02ffee;fill-opacity:0.4;fill-rule:evenodd;stroke:none"
       d="m 91.8948,22.8136 v -4.3 h -0.7 v 4.3 z"
       id="path416" />
    <path
       style="fill:#02ffee;fill-opacity:0.4;fill-rule:evenodd;stroke:none"
       d="m 90.8948,22.8136 v -4.3 h -0.7 v 4.3 z"
       id="path418" />
    <path
       style="fill:#02ffee;fill-opacity:0.4;fill-rule:evenodd;stroke:none"
       d="m 89.8948,22.8136 v -4.3 h -0.7 v 4.3 z"
       id="path420" />
    <path
       style="fill:#02ffee;fill-opacity:0.4;fill-rule:evenodd;stroke:none"
       d="m 86.8948,22.8136 v -4.3 h -0.7 v 4.3 z"
       id="path422" />
    <path
       style="fill:#02ffee;fill-opacity:0.4;fill-rule:evenodd;stroke:none"
       d="m 85.8948,22.8136 v -4.3 h -0.7 v 4.3 z"
       id="path424" />
    <path
       style="fill:#02ffee;fill-opacity:0.4;fill-rule:evenodd;stroke:none"
       d="m 84.8948,22.8136 v -4.3 h -0.7 v 4.3 z"
       id="path426" />
    <path
       style="fill:#02ffee;fill-opacity:0.4;fill-rule:evenodd;stroke:none"
       d="m 83.8948,22.8136 v -4.3 h -0.7 v 4.3 z"
       id="path428" />
    <path
       style="fill:#02ffee;fill-opacity:0.4;fill-rule:evenodd;stroke:none"
       d="m 82.8948,22.8136 v -4.3 h -0.7 v 4.3 z"
       id="path430" />
    <path
       style="fill:#02ffee;fill-opacity:0.4;fill-rule:evenodd;stroke:none"
       d="m 81.8948,22.8136 v -4.3 h -0.7 v 4.3 z"
       id="path432" />
    <path
       style="fill:#02ffee;fill-opacity:0.4;fill-rule:evenodd;stroke:none"
       d="m 80.8948,22.8136 v -4.3 h -0.7 v 4.3 z"
       id="path434" />
  </g>
  <g
     style="fill:none;stroke:#d0d2cd;stroke-width:0.25;stroke-linecap:round;stroke-linejoin:round;stroke-opacity:1"
     id="g510"
     transform="translate(-17.4578,-16.6)">
    <path
       d="M 76.7797,25.3605 70.574,18.8376"
       id="path438" />
    <path
       d="m 103.3139,25.3568 6.2021,-6.5192"
       id="path440" />
    <path
       d="m 61.9462,78.945 h 56.1976"
       id="path442" />
    <circle
       cx="53.044498"
       cy="66.593597"
       r="3.3499999"
       id="circle444" />
    <path
       d="m 76.7797,25.3605 a 1.0001,1.0001 0 0 0 0.7245,0.3108"
       id="path446" />
    <path
       d="m 48.2255,65.0839 a 5.05,5.05 0 0 0 1.6164,5.4143"
       id="path448" />
    <path
       d="m 102.5858,25.6712 h -1.8832"
       id="path450" />
    <path
       d="m 118.1438,78.945 a 5.05,5.05 0 0 0 3.2026,-1.1454"
       id="path452" />
    <path
       d="m 77.5042,25.6712 h 1.8832"
       id="path454" />
    <path
       d="m 62.0962,20.8087 v 0"
       id="path456" />
    <path
       d="m 49.8419,70.4982 8.9017,7.3013"
       id="path458" />
    <path
       d="m 102.5858,25.6712 a 0.9999,0.9999 0 0 0 0.728,-0.3144"
       id="path460" />
    <path
       d="m 70.574,18.8376 a 5.05,5.05 0 0 0 -8.4778,1.9711"
       id="path462" />
    <path
       d="M 117.9938,20.8087 A 5.05,5.05 0 0 0 109.516,18.8376"
       id="path464" />
    <circle
       cx="127.0455"
       cy="66.593597"
       r="3.3499999"
       id="circle466" />
    <path
       d="m 100.2026,25.1713 a 0.5,0.5 0 0 0 0.5,0.5"
       id="path468" />
    <path
       d="M 62.0962,20.8087 48.2255,65.0839"
       id="path470" />
    <circle
       cx="66.915298"
       cy="22.318501"
       r="3.3499999"
       id="circle472" />
    <circle
       cx="113.1747"
       cy="22.318501"
       r="3.3499999"
       id="circle474" />
    <path
       d="m 130.2481,70.4982 -8.9017,7.3014"
       id="path476" />
    <path
       d="m 117.9938,20.8087 v 0"
       id="path478" />
    <path
       d="m 79.3874,25.6712 a 0.5,0.5 0 0 0 0.5,-0.5"
       id="path480" />
    <path
       d="m 117.9938,20.8087 13.8757,44.2909"
       id="path482" />
    <path
       d="m 130.2481,70.4982 a 5.0502,5.0502 0 0 0 1.6214,-5.3986"
       id="path484" />
    <path
       d="m 58.7436,77.7995 a 5.0499,5.0499 0 0 0 3.2026,1.1455"
       id="path486" />
    <path
       d="m 100.1948,17.7136 v 7.4563"
       id="path488" />
    <path
       d="m 99.6948,17.2136 0.5,0.5"
       id="path490" />
    <path
       d="m 89.4948,17.2136 h 10.2"
       id="path492" />
    <path
       d="m 89.4948,17.2136 -0.5,0.5"
       id="path494" />
    <path
       d="m 88.9948,17.7136 v 6.95"
       id="path496" />
    <path
       d="m 87.0948,17.7136 v 6.95"
       id="path498" />
    <path
       d="m 86.5948,17.2136 0.5,0.5"
       id="path500" />
    <path
       d="m 80.3948,17.2136 h 6.2"
       id="path502" />
    <path
       d="m 80.3948,17.2136 -0.5,0.5"
       id="path504" />
    <path
       d="M 79.8948,25.1699 V 17.7136"
       id="path506" />
    <path
       d="m 87.0948,24.6636 a 0.95,0.95 0 0 0 1.9,0"
       id="path508" />
  </g>
  <g
     style="fill:#ffffff;fill-opacity:1;stroke:none"
     id="g766"
     transform="translate(-17.4578,-16.6)">
    <circle
       cx="81.507797"
       cy="25.475"
       r="0.15000001"
       id="circle512" />
    <circle
       cx="82.507797"
       cy="23.575001"
       r="0.15000001"
       id="circle514" />
    <circle
       cx="82.507797"
       cy="27.275"
       r="0.15000001"
       id="circle516" />
    <circle
       cx="81.507797"
       cy="26.375"
       r="0.15000001"
       id="circle518" />
    <circle
       cx="82.507797"
       cy="28.174999"
       r="0.15000001"
       id="circle520" />
    <circle
       cx="80.5578"
       cy="26.375"
       r="0.15000001"
       id="circle522" />
    <circle
       cx="81.507797"
       cy="23.575001"
       r="0.15000001"
       id="circle524" />
    <circle
       cx="82.507797"
       cy="25.475"
       r="0.15000001"
       id="circle526" />
    <circle
       cx="82.507797"
       cy="26.375"
       r="0.15000001"
       id="circle528" />
    <circle
       cx="80.5578"
       cy="24.575001"
       r="0.15000001"
       id="circle530" />
    <circle
       cx="80.5578"
       cy="28.174999"
       r="0.15000001"
       id="circle532" />
    <circle
       cx="81.507797"
       cy="27.275"
       r="0.15000001"
       id="circle534" />
    <circle
       cx="81.507797"
       cy="24.575001"
       r="0.15000001"
       id="circle536" />
    <circle
       cx="80.5578"
       cy="23.575001"
       r="0.15000001"
       id="circle538" />
    <circle
       cx="81.507797"
       cy="28.174999"
       r="0.15000001"
       id="circle540" />
    <circle
       cx="80.5578"
       cy="27.275"
       r="0.15000001"
       id="circle542" />
    <circle
       cx="80.5578"
       cy="25.475"
       r="0.15000001"
       id="circle544" />
    <circle
       cx="82.507797"
       cy="24.575001"
       r="0.15000001"
       id="circle546" />
    <circle
       cx="114.6578"
       cy="52.474998"
       r="0.15000001"
       id="circle548" />
    <circle
       cx="115.5078"
       cy="57.375"
       r="0.15000001"
       id="circle550" />
    <circle
       cx="95.157799"
       cy="65.987503"
       r="0.15000001"
       id="circle552" />
    <circle
       cx="109.5078"
       cy="60.049999"
       r="0.15000001"
       id="circle554" />
    <circle
       cx="105.5578"
       cy="64.375"
       r="0.15000001"
       id="circle556" />
    <circle
       cx="119.1078"
       cy="34.424999"
       r="0.15000001"
       id="circle558" />
    <circle
       cx="89.507797"
       cy="23.475"
       r="0.15000001"
       id="circle560" />
    <circle
       cx="89.5578"
       cy="27.225"
       r="0.15000001"
       id="circle562" />
    <circle
       cx="116.1078"
       cy="56.875"
       r="0.15000001"
       id="circle564" />
    <circle
       cx="89.507797"
       cy="24.375"
       r="0.15000001"
       id="circle566" />
    <circle
       cx="90.5578"
       cy="25.325001"
       r="0.15000001"
       id="circle568" />
    <circle
       cx="90.607803"
       cy="28.125"
       r="0.15000001"
       id="circle570" />
    <circle
       cx="91.607803"
       cy="27.225"
       r="0.15000001"
       id="circle572" />
    <circle
       cx="112.6578"
       cy="41.224998"
       r="0.15000001"
       id="circle574" />
    <circle
       cx="91.5578"
       cy="25.325001"
       r="0.15000001"
       id="circle576" />
    <circle
       cx="90.607803"
       cy="26.424999"
       r="0.15000001"
       id="circle578" />
    <circle
       cx="117.3578"
       cy="36.125"
       r="0.15000001"
       id="circle580" />
    <circle
       cx="118.4078"
       cy="34.424999"
       r="0.15000001"
       id="circle582" />
    <circle
       cx="91.5578"
       cy="24.375"
       r="0.15000001"
       id="circle584" />
    <circle
       cx="89.507797"
       cy="25.325001"
       r="0.15000001"
       id="circle586" />
    <circle
       cx="116.2578"
       cy="49.174999"
       r="0.15000001"
       id="circle588" />
    <circle
       cx="90.5578"
       cy="23.475"
       r="0.15000001"
       id="circle590" />
    <circle
       cx="91.607803"
       cy="28.125"
       r="0.15000001"
       id="circle592" />
    <circle
       cx="89.5578"
       cy="28.125"
       r="0.15000001"
       id="circle594" />
    <circle
       cx="90.607803"
       cy="27.225"
       r="0.15000001"
       id="circle596" />
    <circle
       cx="89.5578"
       cy="26.424999"
       r="0.15000001"
       id="circle598" />
    <circle
       cx="91.5578"
       cy="23.475"
       r="0.15000001"
       id="circle600" />
    <circle
       cx="118.3578"
       cy="35.325001"
       r="0.15000001"
       id="circle602" />
    <circle
       cx="119.1078"
       cy="36.224998"
       r="0.15000001"
       id="circle604" />
    <circle
       cx="90.357803"
       cy="56.237499"
       r="0.15000001"
       id="circle606" />
    <circle
       cx="119.1078"
       cy="35.325001"
       r="0.15000001"
       id="circle608" />
    <circle
       cx="90.5578"
       cy="24.375"
       r="0.15000001"
       id="circle610" />
    <circle
       cx="91.607803"
       cy="26.424999"
       r="0.15000001"
       id="circle612" />
    <circle
       cx="74.757797"
       cy="54.724998"
       r="0.15000001"
       id="circle614" />
    <circle
       cx="85.507797"
       cy="23.625"
       r="0.15000001"
       id="circle616" />
    <circle
       cx="85.457802"
       cy="26.375"
       r="0.15000001"
       id="circle618" />
    <circle
       cx="107.9578"
       cy="35.875"
       r="0.15000001"
       id="circle620" />
    <circle
       cx="86.507797"
       cy="24.575001"
       r="0.15000001"
       id="circle622" />
    <circle
       cx="84.457802"
       cy="24.575001"
       r="0.15000001"
       id="circle624" />
    <circle
       cx="86.5578"
       cy="23.625"
       r="0.15000001"
       id="circle626" />
    <circle
       cx="85.457802"
       cy="27.225"
       r="0.15000001"
       id="circle628" />
    <circle
       cx="84.457802"
       cy="27.225"
       r="0.15000001"
       id="circle630" />
    <circle
       cx="85.457802"
       cy="24.575001"
       r="0.15000001"
       id="circle632" />
    <circle
       cx="86.507797"
       cy="26.375"
       r="0.15000001"
       id="circle634" />
    <circle
       cx="86.507797"
       cy="27.225"
       r="0.15000001"
       id="circle636" />
    <circle
       cx="84.457802"
       cy="28.125"
       r="0.15000001"
       id="circle638" />
    <circle
       cx="84.457802"
       cy="26.375"
       r="0.15000001"
       id="circle640" />
    <circle
       cx="84.457802"
       cy="25.424999"
       r="0.15000001"
       id="circle642" />
    <circle
       cx="85.457802"
       cy="28.125"
       r="0.15000001"
       id="circle644" />
    <circle
       cx="84.507797"
       cy="23.625"
       r="0.15000001"
       id="circle646" />
    <circle
       cx="107.9578"
       cy="35.875"
       r="0.15000001"
       id="circle648" />
    <circle
       cx="86.507797"
       cy="28.125"
       r="0.15000001"
       id="circle650" />
    <circle
       cx="85.457802"
       cy="25.424999"
       r="0.15000001"
       id="circle652" />
    <circle
       cx="86.507797"
       cy="25.424999"
       r="0.15000001"
       id="circle654" />
    <circle
       cx="108.5578"
       cy="37.525002"
       r="0.15000001"
       id="circle656" />
    <circle
       cx="116.2578"
       cy="36.325001"
       r="0.15000001"
       id="circle658" />
    <circle
       cx="115.1078"
       cy="50.325001"
       r="0.15000001"
       id="circle660" />
    <circle
       cx="112.9578"
       cy="57.325001"
       r="0.15000001"
       id="circle662" />
    <circle
       cx="112.9578"
       cy="61.935001"
       r="0.15000001"
       id="circle664" />
    <circle
       cx="115.4578"
       cy="52.174999"
       r="0.15000001"
       id="circle666" />
    <circle
       cx="105.7078"
       cy="62.375"
       r="0.15000001"
       id="circle668" />
    <circle
       cx="110.4078"
       cy="59.974998"
       r="0.15000001"
       id="circle670" />
    <circle
       cx="111.7078"
       cy="59.575001"
       r="0.15000001"
       id="circle672" />
    <circle
       cx="107.0578"
       cy="61.875"
       r="0.15000001"
       id="circle674" />
    <circle
       cx="118.1078"
       cy="60.325001"
       r="0.15000001"
       id="circle676" />
    <circle
       cx="112.5078"
       cy="34.724998"
       r="0.15000001"
       id="circle678" />
    <circle
       cx="87.657799"
       cy="70.1875"
       r="0.15000001"
       id="circle680" />
    <circle
       cx="111.1578"
       cy="36.125"
       r="0.15000001"
       id="circle682" />
    <circle
       cx="111.1578"
       cy="37.424999"
       r="0.15000001"
       id="circle684" />
    <circle
       cx="118.8656"
       cy="54.2328"
       r="0.15000001"
       id="circle686" />
    <circle
       cx="109.8578"
       cy="58.275002"
       r="0.15000001"
       id="circle688" />
    <circle
       cx="113.8078"
       cy="36.125"
       r="0.15000001"
       id="circle690" />
    <circle
       cx="110.4078"
       cy="65.675003"
       r="0.15000001"
       id="circle692" />
    <circle
       cx="113.8078"
       cy="34.724998"
       r="0.15000001"
       id="circle694" />
    <circle
       cx="74.277802"
       cy="36.825001"
       r="0.15000001"
       id="circle696" />
    <circle
       cx="87.757797"
       cy="62.587502"
       r="0.15000001"
       id="circle698" />
    <circle
       cx="117.9078"
       cy="77.275002"
       r="0.15000001"
       id="circle700" />
    <circle
       cx="114.8578"
       cy="55.825001"
       r="0.15000001"
       id="circle702" />
    <circle
       cx="112.5078"
       cy="37.424999"
       r="0.15000001"
       id="circle704" />
    <circle
       cx="113.4828"
       cy="41.200001"
       r="0.15000001"
       id="circle706" />
    <circle
       cx="111.7078"
       cy="47.525002"
       r="0.15000001"
       id="circle708" />
    <circle
       cx="104.7078"
       cy="32.375"
       r="0.15000001"
       id="circle710" />
    <circle
       cx="112.4578"
       cy="53.674999"
       r="0.15000001"
       id="circle712" />
    <circle
       cx="112.4578"
       cy="55.825001"
       r="0.15000001"
       id="circle714" />
    <circle
       cx="78.827797"
       cy="36.833698"
       r="0.15000001"
       id="circle716" />
    <circle
       cx="117.5578"
       cy="33.724998"
       r="0.15000001"
       id="circle718" />
    <circle
       cx="118.3578"
       cy="74.224998"
       r="0.15000001"
       id="circle720" />
    <circle
       cx="113.7078"
       cy="53.674999"
       r="0.15000001"
       id="circle722" />
    <circle
       cx="112.4578"
       cy="54.825001"
       r="0.15000001"
       id="circle724" />
    <circle
       cx="110.7578"
       cy="73.925003"
       r="0.15000001"
       id="circle726" />
    <circle
       cx="113.7078"
       cy="55.825001"
       r="0.15000001"
       id="circle728" />
    <circle
       cx="114.8578"
       cy="54.775002"
       r="0.15000001"
       id="circle730" />
    <circle
       cx="117.6078"
       cy="58.025002"
       r="0.15000001"
       id="circle732" />
    <circle
       cx="113.8078"
       cy="37.424999"
       r="0.15000001"
       id="circle734" />
    <circle
       cx="105.5578"
       cy="60.575001"
       r="0.15000001"
       id="circle736" />
    <circle
       cx="112.5078"
       cy="36.125"
       r="0.15000001"
       id="circle738" />
    <circle
       cx="110.8078"
       cy="77.175003"
       r="0.15000001"
       id="circle740" />
    <circle
       cx="115.0578"
       cy="47.875"
       r="0.15000001"
       id="circle742" />
    <circle
       cx="114.8078"
       cy="53.674999"
       r="0.15000001"
       id="circle744" />
    <circle
       cx="113.7578"
       cy="60.974998"
       r="0.15000001"
       id="circle746" />
    <circle
       cx="109.1185"
       cy="51.974998"
       r="0.15000001"
       id="circle748" />
    <circle
       cx="111.1578"
       cy="34.724998"
       r="0.15000001"
       id="circle750" />
    <circle
       cx="112.6078"
       cy="52.025002"
       r="0.15000001"
       id="circle752" />
    <circle
       cx="113.7078"
       cy="54.775002"
       r="0.15000001"
       id="circle754" />
    <circle
       cx="107.5078"
       cy="37.125"
       r="0.15000001"
       id="circle756" />
    <circle
       cx="17.9578"
       cy="17.1"
       r="0.5"
       id="circle758" />
    <circle
       cx="37.957802"
       cy="17.1"
       r="0.5"
       id="circle760" />
    <circle
       cx="117.3085"
       cy="73.525002"
       r="0.30000001"
       id="circle762" />
    <circle
       cx="111.5285"
       cy="73.525002"
       r="0.30000001"
       id="circle764" />
  </g>
  <g
     style="fill:none;stroke:#ffffff;stroke-width:0.6;stroke-linecap:round;stroke-linejoin:round;stroke-opacity:1"
     id="g776"
     transform="translate(-17.4578,-16.6)">
    <path
       d="m 118.7385,73.595 v -1.1"
       id="path768" />
    <path
       d="m 118.7385,77.615 v -0.8"
       id="path770" />
    <path
       d="m 110.0985,73.595 v -1.1"
       id="path772" />
    <path
       d="m 110.0985,77.615 v -0.8"
       id="path774" />
  </g>
  <g
     style="fill:#ffffff;fill-opacity:1;stroke:none"
     id="g782"
     transform="translate(-17.4578,-16.6)">
    <circle
       cx="92.857803"
       cy="40.224998"
       r="1.35"
       id="circle778" />
    <circle
       cx="97.857803"
       cy="40.224998"
       r="1.35"
       id="circle780" />
  </g>
</svg>
