<?xml version="1.0" encoding="UTF-8" standalone="no"?>
<svg
   version="1.1"
   width="84.351288mm"
   height="61.9814mm"
   viewBox="0 0 84.351291 61.981399"
   id="svg196"
   sodipodi:docname="pcbb.svg"
   xmlns:inkscape="http://www.inkscape.org/namespaces/inkscape"
   xmlns:sodipodi="http://sodipodi.sourceforge.net/DTD/sodipodi-0.dtd"
   xmlns="http://www.w3.org/2000/svg"
   xmlns:svg="http://www.w3.org/2000/svg">
  <defs
     id="defs200" />
  <sodipodi:namedview
     id="namedview198"
     pagecolor="#ffffff"
     bordercolor="#000000"
     borderopacity="0.25"
     inkscape:showpageshadow="2"
     inkscape:pageopacity="0.0"
     inkscape:pagecheckerboard="0"
     inkscape:deskcolor="#d1d1d1"
     inkscape:document-units="mm" />
  <title
     id="title2">SVG Image created as pcbb.svg date 2025-09-11T05:29:25+0000 </title>
  <desc
     id="desc4">Image generated by PCBNEW </desc>
  <g
     style="fill:#000000;fill-opacity:1;stroke:#000000;stroke-linecap:round;stroke-linejoin:round;stroke-opacity:1"
     id="g6"
     transform="translate(-6.8281854,-60.5636)" />
  <g
     style="fill:none;stroke:#4d7fc4;stroke-width:0.9;stroke-linecap:round;stroke-linejoin:round;stroke-opacity:1"
     id="g52"
     transform="translate(-6.8281854,-60.5636)">
    <path
       d="m 53.3267,116.245 v -1.1"
       id="path8" />
    <path
       d="m 53.3267,120.265 v -0.8"
       id="path10" />
    <path
       d="m 44.6867,116.245 v -1.1"
       id="path12" />
    <path
       d="m 44.6867,120.265 v -0.8"
       id="path14" />
    <path
       style="fill:#4d7fc4;fill-opacity:1;fill-rule:evenodd;stroke:none"
       d="m 58.8537,66.2886 v -4.3 h -0.7 v 4.3 z"
       id="path16" />
    <path
       style="fill:#4d7fc4;fill-opacity:1;fill-rule:evenodd;stroke:none"
       d="m 57.8537,66.2886 v -4.3 h -0.7 v 4.3 z"
       id="path18" />
    <path
       style="fill:#4d7fc4;fill-opacity:1;fill-rule:evenodd;stroke:none"
       d="m 56.8537,66.2886 v -4.3 h -0.7 v 4.3 z"
       id="path20" />
    <path
       style="fill:#4d7fc4;fill-opacity:1;fill-rule:evenodd;stroke:none"
       d="m 55.8537,66.2886 v -4.3 h -0.7 v 4.3 z"
       id="path22" />
    <path
       style="fill:#4d7fc4;fill-opacity:1;fill-rule:evenodd;stroke:none"
       d="m 54.8537,66.2886 v -4.3 h -0.7 v 4.3 z"
       id="path24" />
    <path
       style="fill:#4d7fc4;fill-opacity:1;fill-rule:evenodd;stroke:none"
       d="m 53.8537,66.2886 v -4.3 h -0.7 v 4.3 z"
       id="path26" />
    <path
       style="fill:#4d7fc4;fill-opacity:1;fill-rule:evenodd;stroke:none"
       d="m 52.8537,66.2886 v -4.3 h -0.7 v 4.3 z"
       id="path28" />
    <path
       style="fill:#4d7fc4;fill-opacity:1;fill-rule:evenodd;stroke:none"
       d="m 51.8537,66.2886 v -4.3 h -0.7 v 4.3 z"
       id="path30" />
    <path
       style="fill:#4d7fc4;fill-opacity:1;fill-rule:evenodd;stroke:none"
       d="m 50.8537,66.2886 v -4.3 h -0.7 v 4.3 z"
       id="path32" />
    <path
       style="fill:#4d7fc4;fill-opacity:1;fill-rule:evenodd;stroke:none"
       d="m 49.8537,66.2886 v -4.3 h -0.7 v 4.3 z"
       id="path34" />
    <path
       style="fill:#4d7fc4;fill-opacity:1;fill-rule:evenodd;stroke:none"
       d="m 48.8537,66.2886 v -4.3 h -0.7 v 4.3 z"
       id="path36" />
    <path
       style="fill:#4d7fc4;fill-opacity:1;fill-rule:evenodd;stroke:none"
       d="m 45.8537,66.2886 v -4.3 h -0.7 v 4.3 z"
       id="path38" />
    <path
       style="fill:#4d7fc4;fill-opacity:1;fill-rule:evenodd;stroke:none"
       d="m 44.8537,66.2886 v -4.3 h -0.7 v 4.3 z"
       id="path40" />
    <path
       style="fill:#4d7fc4;fill-opacity:1;fill-rule:evenodd;stroke:none"
       d="m 43.8537,66.2886 v -4.3 h -0.7 v 4.3 z"
       id="path42" />
    <path
       style="fill:#4d7fc4;fill-opacity:1;fill-rule:evenodd;stroke:none"
       d="m 42.8537,66.2886 v -4.3 h -0.7 v 4.3 z"
       id="path44" />
    <path
       style="fill:#4d7fc4;fill-opacity:1;fill-rule:evenodd;stroke:none"
       d="m 41.8537,66.2886 v -4.3 h -0.7 v 4.3 z"
       id="path46" />
    <path
       style="fill:#4d7fc4;fill-opacity:1;fill-rule:evenodd;stroke:none"
       d="m 40.8537,66.2886 v -4.3 h -0.7 v 4.3 z"
       id="path48" />
    <path
       style="fill:#4d7fc4;fill-opacity:1;fill-rule:evenodd;stroke:none"
       d="m 39.8537,66.2886 v -4.3 h -0.7 v 4.3 z"
       id="path50" />
  </g>
  <g
     style="fill:#02ffee;fill-opacity:0.4;stroke:none"
     id="g58"
     transform="translate(-6.8281854,-60.5636)">
    <circle
       cx="51.896702"
       cy="116.175"
       r="0.30000001"
       id="circle54" />
    <circle
       cx="46.116699"
       cy="116.175"
       r="0.30000001"
       id="circle56" />
  </g>
  <g
     style="fill:none;stroke:#02ffee;stroke-width:0.9;stroke-linecap:round;stroke-linejoin:round;stroke-opacity:1"
     id="g104"
     transform="translate(-6.8281854,-60.5636)">
    <path
       d="m 53.3267,116.245 v -1.1"
       id="path60" />
    <path
       d="m 53.3267,120.265 v -0.8"
       id="path62" />
    <path
       d="m 44.6867,116.245 v -1.1"
       id="path64" />
    <path
       d="m 44.6867,120.265 v -0.8"
       id="path66" />
    <path
       style="fill:#02ffee;fill-opacity:0.4;fill-rule:evenodd;stroke:none"
       d="m 58.8537,66.2886 v -4.3 h -0.7 v 4.3 z"
       id="path68" />
    <path
       style="fill:#02ffee;fill-opacity:0.4;fill-rule:evenodd;stroke:none"
       d="m 57.8537,66.2886 v -4.3 h -0.7 v 4.3 z"
       id="path70" />
    <path
       style="fill:#02ffee;fill-opacity:0.4;fill-rule:evenodd;stroke:none"
       d="m 56.8537,66.2886 v -4.3 h -0.7 v 4.3 z"
       id="path72" />
    <path
       style="fill:#02ffee;fill-opacity:0.4;fill-rule:evenodd;stroke:none"
       d="m 55.8537,66.2886 v -4.3 h -0.7 v 4.3 z"
       id="path74" />
    <path
       style="fill:#02ffee;fill-opacity:0.4;fill-rule:evenodd;stroke:none"
       d="m 54.8537,66.2886 v -4.3 h -0.7 v 4.3 z"
       id="path76" />
    <path
       style="fill:#02ffee;fill-opacity:0.4;fill-rule:evenodd;stroke:none"
       d="m 53.8537,66.2886 v -4.3 h -0.7 v 4.3 z"
       id="path78" />
    <path
       style="fill:#02ffee;fill-opacity:0.4;fill-rule:evenodd;stroke:none"
       d="m 52.8537,66.2886 v -4.3 h -0.7 v 4.3 z"
       id="path80" />
    <path
       style="fill:#02ffee;fill-opacity:0.4;fill-rule:evenodd;stroke:none"
       d="m 51.8537,66.2886 v -4.3 h -0.7 v 4.3 z"
       id="path82" />
    <path
       style="fill:#02ffee;fill-opacity:0.4;fill-rule:evenodd;stroke:none"
       d="m 50.8537,66.2886 v -4.3 h -0.7 v 4.3 z"
       id="path84" />
    <path
       style="fill:#02ffee;fill-opacity:0.4;fill-rule:evenodd;stroke:none"
       d="m 49.8537,66.2886 v -4.3 h -0.7 v 4.3 z"
       id="path86" />
    <path
       style="fill:#02ffee;fill-opacity:0.4;fill-rule:evenodd;stroke:none"
       d="m 48.8537,66.2886 v -4.3 h -0.7 v 4.3 z"
       id="path88" />
    <path
       style="fill:#02ffee;fill-opacity:0.4;fill-rule:evenodd;stroke:none"
       d="m 45.8537,66.2886 v -4.3 h -0.7 v 4.3 z"
       id="path90" />
    <path
       style="fill:#02ffee;fill-opacity:0.4;fill-rule:evenodd;stroke:none"
       d="m 44.8537,66.2886 v -4.3 h -0.7 v 4.3 z"
       id="path92" />
    <path
       style="fill:#02ffee;fill-opacity:0.4;fill-rule:evenodd;stroke:none"
       d="m 43.8537,66.2886 v -4.3 h -0.7 v 4.3 z"
       id="path94" />
    <path
       style="fill:#02ffee;fill-opacity:0.4;fill-rule:evenodd;stroke:none"
       d="m 42.8537,66.2886 v -4.3 h -0.7 v 4.3 z"
       id="path96" />
    <path
       style="fill:#02ffee;fill-opacity:0.4;fill-rule:evenodd;stroke:none"
       d="m 41.8537,66.2886 v -4.3 h -0.7 v 4.3 z"
       id="path98" />
    <path
       style="fill:#02ffee;fill-opacity:0.4;fill-rule:evenodd;stroke:none"
       d="m 40.8537,66.2886 v -4.3 h -0.7 v 4.3 z"
       id="path100" />
    <path
       style="fill:#02ffee;fill-opacity:0.4;fill-rule:evenodd;stroke:none"
       d="m 39.8537,66.2886 v -4.3 h -0.7 v 4.3 z"
       id="path102" />
  </g>
  <g
     style="fill:none;stroke:#d0d2cd;stroke-width:0.25;stroke-linecap:round;stroke-linejoin:round;stroke-opacity:1"
     id="g178"
     transform="translate(-6.8281854,-60.5636)">
    <path
       d="M 35.7385,68.8355 29.5329,62.3126"
       id="path106" />
    <path
       d="m 62.2727,68.8318 6.2021,-6.5192"
       id="path108" />
    <path
       d="M 20.9051,122.42 H 77.1026"
       id="path110" />
    <circle
       cx="12.0034"
       cy="110.0686"
       r="3.3499999"
       id="circle112" />
    <path
       d="m 35.7385,68.8355 a 1.0001,1.0001 0 0 0 0.7245,0.3108"
       id="path114" />
    <path
       d="m 7.1843,108.5589 a 5.05,5.05 0 0 0 1.6164,5.4143"
       id="path116" />
    <path
       d="M 61.5446,69.1462 H 59.6615"
       id="path118" />
    <path
       d="m 77.1026,122.42 a 5.05,5.05 0 0 0 3.2027,-1.1454"
       id="path120" />
    <path
       d="m 36.463,69.1462 h 1.8832"
       id="path122" />
    <path
       d="m 21.0551,64.2837 v 0"
       id="path124" />
    <path
       d="m 8.8007,113.9732 8.9017,7.3013"
       id="path126" />
    <path
       d="m 61.5446,69.1462 a 0.9999,0.9999 0 0 0 0.7281,-0.3144"
       id="path128" />
    <path
       d="M 29.5329,62.3126 A 5.0501,5.0501 0 0 0 21.055,64.2837"
       id="path130" />
    <path
       d="M 76.9526,64.2837 A 5.05,5.05 0 0 0 68.4748,62.3126"
       id="path132" />
    <circle
       cx="86.004303"
       cy="110.0686"
       r="3.3499999"
       id="circle134" />
    <path
       d="m 59.1615,68.6463 a 0.5,0.5 0 0 0 0.5,0.5"
       id="path136" />
    <path
       d="M 21.0551,64.2837 7.1843,108.5589"
       id="path138" />
    <circle
       cx="25.8741"
       cy="65.793503"
       r="3.3499999"
       id="circle140" />
    <circle
       cx="72.133598"
       cy="65.793503"
       r="3.3499999"
       id="circle142" />
    <path
       d="m 89.2069,113.9732 -8.9017,7.3014"
       id="path144" />
    <path
       d="m 76.9526,64.2837 v 0"
       id="path146" />
    <path
       d="m 38.3462,69.1462 a 0.5,0.5 0 0 0 0.5,-0.5"
       id="path148" />
    <path
       d="m 76.9526,64.2837 13.8757,44.2909"
       id="path150" />
    <path
       d="m 89.2069,113.9732 a 5.0502,5.0502 0 0 0 1.6214,-5.3986"
       id="path152" />
    <path
       d="m 17.7024,121.2745 a 5.05,5.05 0 0 0 3.2027,1.1455"
       id="path154" />
    <path
       d="m 59.1537,61.1886 v 7.4563"
       id="path156" />
    <path
       d="m 58.6537,60.6886 0.5,0.5"
       id="path158" />
    <path
       d="m 48.4537,60.6886 h 10.2"
       id="path160" />
    <path
       d="m 48.4537,60.6886 -0.5,0.5"
       id="path162" />
    <path
       d="m 47.9537,61.1886 v 6.95"
       id="path164" />
    <path
       d="m 46.0537,61.1886 v 6.95"
       id="path166" />
    <path
       d="m 45.5537,60.6886 0.5,0.5"
       id="path168" />
    <path
       d="m 39.3537,60.6886 h 6.2"
       id="path170" />
    <path
       d="m 39.3537,60.6886 -0.5,0.5"
       id="path172" />
    <path
       d="M 38.8537,68.6449 V 61.1886"
       id="path174" />
    <path
       d="m 46.0537,68.1386 a 0.95,0.95 0 0 0 1.9,0"
       id="path176" />
  </g>
  <g
     style="fill:#ffffff;fill-opacity:1;stroke:none"
     id="g184"
     transform="translate(-6.8281854,-60.5636)">
    <circle
       cx="51.896702"
       cy="116.175"
       r="0.30000001"
       id="circle180" />
    <circle
       cx="46.116699"
       cy="116.175"
       r="0.30000001"
       id="circle182" />
  </g>
  <g
     style="fill:none;stroke:#ffffff;stroke-width:0.6;stroke-linecap:round;stroke-linejoin:round;stroke-opacity:1"
     id="g194"
     transform="translate(-6.8281854,-60.5636)">
    <path
       d="m 53.3267,116.245 v -1.1"
       id="path186" />
    <path
       d="m 53.3267,120.265 v -0.8"
       id="path188" />
    <path
       d="m 44.6867,116.245 v -1.1"
       id="path190" />
    <path
       d="m 44.6867,120.265 v -0.8"
       id="path192" />
  </g>
</svg>
